<svg width="17" height="10" viewBox="0 0 17 10" fill="none" xmlns="http://www.w3.org/2000/svg">
<path d="M1.12449 9.73084L8.01462 2.55793L14.9048 9.73084C15.0279 9.85925 15.1931 9.93115 15.3652 9.93115C15.5373 9.93115 15.7025 9.85925 15.8256 9.73084C15.8853 9.66847 15.9326 9.59402 15.9649 9.51186C15.9973 9.4297 16.0139 9.34147 16.0139 9.25235C16.0139 9.16323 15.9973 9.075 15.9649 8.99284C15.9326 8.91068 15.8853 8.83623 15.8256 8.77386L8.49575 1.14161C8.36702 1.00761 8.19438 0.932617 8.01462 0.932617C7.83487 0.932617 7.66222 1.00761 7.5335 1.14161L0.203594 8.77239C0.143566 8.83481 0.0958552 8.90944 0.0632775 8.99187C0.0306997 9.07431 0.0139165 9.16288 0.0139165 9.25235C0.0139165 9.34183 0.0306997 9.4304 0.0632775 9.51283C0.0958552 9.59526 0.143566 9.66989 0.203594 9.73231C0.326698 9.86073 0.491956 9.93262 0.66404 9.93262C0.836125 9.93262 1.00138 9.86073 1.12449 9.73231L1.12449 9.73084Z" fill="#3C4043"/>
</svg>
