<svg width="18" height="18" viewBox="0 0 18 18" fill="none" xmlns="http://www.w3.org/2000/svg">
<path d="M16.8243 0.230072L17.7293 1.13567L8.13567 10.7293L7.23071 9.82431L16.8243 0.230072Z" fill="#3184EF"/>
<path d="M17.92 6.44001H16.64V1.32001H11.52V0.0400085H17.92V6.44001ZM14.72 17.96H1.92C0.832 17.96 0 17.128 0 16.04V3.24001C0 2.15201 0.832 1.32001 1.92 1.32001H8.96V2.60001H1.92C1.536 2.60001 1.28 2.85601 1.28 3.24001V16.04C1.28 16.424 1.536 16.68 1.92 16.68H14.72C15.104 16.68 15.36 16.424 15.36 16.04V9.00001H16.64V16.04C16.64 17.128 15.808 17.96 14.72 17.96Z" fill="#3184EF"/>
</svg>
