<svg width="28" height="35" viewBox="0 0 28 35" fill="none" xmlns="http://www.w3.org/2000/svg">
<path d="M8.33333 4.66675H4.66667C3.69421 4.66675 2.76157 5.05306 2.07394 5.74069C1.38631 6.42832 1 7.36095 1 8.33341V30.3334C1 31.3059 1.38631 32.2385 2.07394 32.9261C2.76157 33.6138 3.69421 34.0001 4.66667 34.0001H23C23.9725 34.0001 24.9051 33.6138 25.5927 32.9261C26.2804 32.2385 26.6667 31.3059 26.6667 30.3334V8.33341C26.6667 7.36095 26.2804 6.42832 25.5927 5.74069C24.9051 5.05306 23.9725 4.66675 23 4.66675H19.3333" stroke="#EA4335" stroke-width="2" stroke-linecap="round" stroke-linejoin="round"/>
<path d="M8.33301 26.6667V19.3333M13.833 26.6667V24.8333M19.333 26.6667V23M8.33301 4.66667C8.33301 3.69421 8.71932 2.76157 9.40695 2.07394C10.0946 1.38631 11.0272 1 11.9997 1H15.6663C16.6388 1 17.5714 1.38631 18.2591 2.07394C18.9467 2.76157 19.333 3.69421 19.333 4.66667C19.333 5.63913 18.9467 6.57176 18.2591 7.25939C17.5714 7.94702 16.6388 8.33333 15.6663 8.33333H11.9997C11.0272 8.33333 10.0946 7.94702 9.40695 7.25939C8.71932 6.57176 8.33301 5.63913 8.33301 4.66667Z" stroke="#EA4335" stroke-width="2" stroke-linecap="round" stroke-linejoin="round"/>
</svg>
