<svg width="35" height="35" viewBox="0 0 35 35" fill="none" xmlns="http://www.w3.org/2000/svg">
<path d="M12 23H8.33333M19.3333 17.5H8.33333M15.6667 12H8.33333M1 4.66667C1 3.69421 1.38631 2.76158 2.07394 2.07394C2.76158 1.38631 3.69421 1 4.66667 1H30.3333C31.3058 1 32.2384 1.38631 32.9261 2.07394C33.6137 2.76158 34 3.69421 34 4.66667V30.3333C34 31.3058 33.6137 32.2384 32.9261 32.9261C32.2384 33.6137 31.3058 34 30.3333 34H4.66667C3.69421 34 2.76158 33.6137 2.07394 32.9261C1.38631 32.2384 1 31.3058 1 30.3333V4.66667Z" stroke="#EA4335" stroke-width="2" stroke-linecap="round" stroke-linejoin="round"/>
</svg>
