<svg width="35" height="35" viewBox="0 0 35 35" fill="none" xmlns="http://www.w3.org/2000/svg">
<path d="M5.85833 5.85833L29.1417 29.1417M5.85833 29.1417L29.1417 5.85833M1 17.5C1 19.6668 1.42678 21.8124 2.25599 23.8143C3.08519 25.8161 4.30057 27.6351 5.83274 29.1673C7.3649 30.6994 9.18385 31.9148 11.1857 32.744C13.1876 33.5732 15.3332 34 17.5 34C19.6668 34 21.8124 33.5732 23.8143 32.744C25.8161 31.9148 27.6351 30.6994 29.1673 29.1673C30.6994 27.6351 31.9148 25.8161 32.744 23.8143C33.5732 21.8124 34 19.6668 34 17.5C34 15.3332 33.5732 13.1876 32.744 11.1857C31.9148 9.18385 30.6994 7.36491 29.1673 5.83274C27.6351 4.30057 25.8161 3.08519 23.8143 2.25599C21.8124 1.42679 19.6668 1 17.5 1C15.3332 1 13.1876 1.42679 11.1857 2.25599C9.18385 3.08519 7.3649 4.30057 5.83274 5.83274C4.30057 7.36491 3.08519 9.18385 2.25599 11.1857C1.42678 13.1876 1 15.3332 1 17.5Z" stroke="#EA4335" stroke-width="2" stroke-linecap="round" stroke-linejoin="round"/>
<path d="M17.5 1C17.5 5.37607 19.2384 9.57291 22.3327 12.6673C25.4271 15.7616 29.6239 17.5 34 17.5M1 17.5C5.37607 17.5 9.57291 19.2384 12.6673 22.3327C15.7616 25.4271 17.5 29.6239 17.5 34" stroke="#EA4335" stroke-width="2" stroke-linecap="round" stroke-linejoin="round"/>
</svg>
