<svg width="32" height="35" viewBox="0 0 32 35" fill="none" xmlns="http://www.w3.org/2000/svg">
<path d="M23 1V8.33333M8.33333 1V8.33333M1 15.6667H30.3333M1 8.33333C1 7.36087 1.38631 6.42824 2.07394 5.74061C2.76158 5.05298 3.69421 4.66667 4.66667 4.66667H26.6667C27.6391 4.66667 28.5718 5.05298 29.2594 5.74061C29.947 6.42824 30.3333 7.36087 30.3333 8.33333V30.3333C30.3333 31.3058 29.947 32.2384 29.2594 32.9261C28.5718 33.6137 27.6391 34 26.6667 34H4.66667C3.69421 34 2.76158 33.6137 2.07394 32.9261C1.38631 32.2384 1 31.3058 1 30.3333V8.33333Z" stroke="#EA4335" stroke-width="2" stroke-linecap="round" stroke-linejoin="round"/>
<path d="M8.33301 23H11.9997V26.6667H8.33301V23Z" stroke="#EA4335" stroke-width="2" stroke-linecap="round" stroke-linejoin="round"/>
</svg>
