<svg width="28" height="28" viewBox="0 0 28 28" fill="none" xmlns="http://www.w3.org/2000/svg">
<path d="M18.4002 14.8465C18.3749 14.8213 18.3562 14.7903 18.3457 14.7562C18.3352 14.7221 18.3333 14.6859 18.3399 14.6508C18.3466 14.6158 18.3618 14.5829 18.3841 14.555C18.4064 14.5272 18.4352 14.5052 18.468 14.4911L23.3636 12.3593C23.6432 12.2329 23.8783 12.0254 24.0385 11.7637C24.1987 11.502 24.2767 11.1983 24.2622 10.8918C24.2477 10.5853 24.1414 10.2902 23.9572 10.0448C23.773 9.79945 23.5193 9.61507 23.2291 9.51559L5.71922 3.79528C5.45139 3.70786 5.16458 3.6963 4.89059 3.76189C4.61659 3.82748 4.36611 3.96765 4.16689 4.16686C3.96768 4.36608 3.82751 4.61656 3.76192 4.89056C3.69633 5.16455 3.70789 5.45136 3.79531 5.71919L9.51562 23.229C9.60999 23.5242 9.79282 23.7833 10.0393 23.9711C10.2858 24.1589 10.5841 24.2664 10.8937 24.279H10.9692C11.265 24.279 11.5544 24.1922 11.8014 24.0295C12.0485 23.8668 12.2425 23.6353 12.3594 23.3636L14.4878 18.4679C14.502 18.4352 14.5239 18.4064 14.5518 18.3841C14.5796 18.3618 14.6125 18.3466 14.6476 18.3399C14.6826 18.3332 14.7188 18.3352 14.7529 18.3457C14.787 18.3562 14.818 18.3749 14.8433 18.4001L20.2759 23.8328C20.4181 23.975 20.5869 24.0878 20.7727 24.1648C20.9585 24.2417 21.1576 24.2813 21.3587 24.2813C21.5598 24.2813 21.759 24.2417 21.9448 24.1648C22.1306 24.0878 22.2994 23.975 22.4416 23.8328L23.8295 22.4448C23.9717 22.3026 24.0845 22.1338 24.1615 21.948C24.2385 21.7622 24.2781 21.5631 24.2781 21.362C24.2781 21.1609 24.2385 20.9618 24.1615 20.776C24.0845 20.5902 23.9717 20.4214 23.8295 20.2792L18.4002 14.8465ZM22.9042 21.5184L21.5173 22.9053C21.497 22.9256 21.4729 22.9418 21.4463 22.9528C21.4198 22.9638 21.3913 22.9694 21.3626 22.9694C21.3338 22.9694 21.3054 22.9638 21.2788 22.9528C21.2523 22.9418 21.2281 22.9256 21.2078 22.9053L15.7752 17.4726C15.5987 17.2961 15.3817 17.1655 15.1432 17.092C14.9047 17.0185 14.6518 17.0044 14.4066 17.051C14.1614 17.0976 13.9313 17.2034 13.7363 17.3592C13.5413 17.5151 13.3874 17.7162 13.288 17.9451L11.1562 22.8397C11.1373 22.8774 11.1077 22.9089 11.0712 22.9303C11.0347 22.9516 10.9928 22.9619 10.9506 22.96C10.9084 22.958 10.8676 22.9438 10.8332 22.9192C10.7989 22.8945 10.7724 22.8604 10.757 22.8211L5.04328 5.31231C5.02956 5.27481 5.02712 5.23412 5.03625 5.19524C5.04539 5.15637 5.0657 5.12102 5.09469 5.09356C5.13373 5.05408 5.18682 5.03166 5.24234 5.03122C5.26608 5.03142 5.28967 5.03511 5.31234 5.04216L22.8211 10.7603C22.8605 10.7757 22.8946 10.8021 22.9192 10.8365C22.9439 10.8709 22.958 10.9116 22.96 10.9539C22.962 10.9961 22.9516 11.038 22.9303 11.0745C22.9089 11.111 22.8775 11.1405 22.8397 11.1595L17.9441 13.2879C17.7151 13.3874 17.514 13.5413 17.3582 13.7363C17.2023 13.9312 17.0965 14.1613 17.0499 14.4066C17.0034 14.6518 17.0174 14.9046 17.0909 15.1432C17.1644 15.3817 17.2951 15.5986 17.4716 15.7751L22.9042 21.2078C22.9246 21.2281 22.9407 21.2522 22.9517 21.2788C22.9627 21.3053 22.9684 21.3338 22.9684 21.3625C22.9684 21.3913 22.9627 21.4198 22.9517 21.4463C22.9407 21.4729 22.9246 21.497 22.9042 21.5173V21.5184Z" fill="black"/>
</svg>
