<svg width="41" height="40" viewBox="0 0 41 40" fill="none" xmlns="http://www.w3.org/2000/svg">
<g clip-path="url(#clip0_135_944)">
<path d="M40.0652 20.0424C40.0652 25.4852 37.8913 30.3232 34.3261 33.8653C30.7609 37.4074 25.8913 39.5672 20.587 39.5672H20.5C15.1087 39.5672 10.2392 37.4074 6.67394 33.8653C3.28264 30.496 1.19568 25.9171 0.934814 20.8199C0.934814 20.5607 0.934814 20.3016 0.934814 20.0424C0.934814 14.5996 3.10873 9.76161 6.67394 6.21949C10.2392 2.59098 15.1087 0.431152 20.5 0.431152C20.7609 0.431152 21.0218 0.431152 21.2826 0.431152C26.3261 0.603939 30.9348 2.76377 34.3261 6.1331C37.5435 9.32964 39.6305 13.5629 39.9783 18.3145C40.0652 18.9193 40.0652 19.4376 40.0652 20.0424Z" stroke="#EA4335" stroke-miterlimit="10"/>
<path d="M12.3269 2.15991C10.4139 2.85106 8.23994 6.30678 11.8052 5.78842C15.3704 5.27006 29.1095 1.72795 28.8486 6.56596C28.5008 10.0217 14.9356 7.3435 12.2399 9.93529C8.23994 13.823 17.2834 24.3629 18.153 25.6588C19.7182 28.0778 17.0225 30.4105 11.7182 23.2398C8.23994 18.3154 6.50081 14.5141 5.45733 14.0822C3.02255 13.0454 0.500809 18.1426 1.28342 23.1534" stroke="#EA4335" stroke-miterlimit="10"/>
<path d="M28.5 2.15991C28.5 2.15991 35.8044 5.35646 33.8044 9.41693C31.9783 13.2182 17.5435 10.1945 16.1522 11.9223C14.7609 13.6502 17.4565 15.5508 21.1087 15.0325C24.7609 14.5141 28.587 14.3413 29.8913 14.3413C31.1957 14.4277 33.2826 15.2053 33.1957 17.9698C33.1087 20.7344 33.1957 23.6718 28.587 30.6696C27.1087 32.8295 26.9348 34.5573 29.1087 33.607C31.2826 32.6567 35.5435 29.1146 35.8044 22.6351C35.7174 18.3154 38.7609 18.4882 39.8913 22.6351" stroke="#EA4335" stroke-miterlimit="10"/>
<path d="M30.587 36.8035C30.587 36.8035 22.7609 40.7776 21.7175 37.149C21.0218 34.6436 23.2827 34.2981 26.4131 29.1145C29.0218 24.7948 30.2392 20.648 28.8479 20.0432C27.4566 19.4385 27.2827 20.3888 25.1088 24.5357C22.9348 28.6825 21.1957 33.175 17.8044 32.6566C14.4131 32.1382 10.8479 29.5465 7.80441 23.9309C7.36963 23.1534 5.45659 17.1058 4.41311 18.9201C3.36963 20.7344 3.71746 24.7084 7.45659 29.3737C9.80441 32.311 13.1088 33.7797 12.5001 34.6436C11.8914 35.5076 9.54354 36.1987 7.10876 34.2981" stroke="#EA4335" stroke-miterlimit="10"/>
</g>
<defs>
<clipPath id="clip0_135_944">
<rect width="40" height="40" fill="white" transform="translate(0.5)"/>
</clipPath>
</defs>
</svg>
