<svg width="41" height="40" viewBox="0 0 41 40" fill="none" xmlns="http://www.w3.org/2000/svg">
<path d="M39.9782 19.9999C39.9782 25.3912 37.8043 30.2608 34.2391 33.826C30.7608 37.3043 25.8913 39.5651 20.5 39.5651H20.413C15.0217 39.5651 10.1521 37.3912 6.58691 33.826L20.5 19.9999L34.2391 6.17383C37.4565 9.39122 39.5434 13.6521 39.8913 18.3477C39.9782 18.8695 39.9782 19.3912 39.9782 19.9999Z" stroke="#EA4335" stroke-miterlimit="10"/>
<path d="M34.3261 33.8261C30.8478 37.3044 25.9783 39.5652 20.587 39.5652C20.5 39.0435 20.5 38.5218 20.5 37.9131C20.5 32.9565 22.3261 28.4348 25.4565 24.9565L34.3261 33.8261Z" stroke="#EA4335" stroke-miterlimit="10"/>
<path d="M40.0652 20C40.0652 25.3913 37.8913 30.2609 34.3261 33.8261L25.4565 24.9566C29.0218 20.9566 34.2392 18.4348 39.9783 18.4348C40.0652 18.9566 40.0652 19.4783 40.0652 20Z" stroke="#EA4335" stroke-miterlimit="10"/>
<path d="M34.2392 6.17395L20.5 20L6.67395 33.7392C3.28264 30.3479 1.19568 25.8261 0.934814 20.6957C0.934814 20.4348 0.934814 20.1739 0.934814 19.9131C0.934814 14.5218 3.10873 9.65221 6.67395 6.08699C10.1522 2.60873 15.1087 0.434814 20.5 0.434814C20.7609 0.434814 21.0218 0.434814 21.2826 0.434814C26.3261 0.695684 30.9348 2.78264 34.2392 6.17395Z" stroke="#EA4335" stroke-miterlimit="10"/>
<path d="M15.5435 15.0434C11.9783 18.6086 7.10873 20.7825 1.71742 20.7825C1.45655 20.7825 1.19568 20.7825 0.934814 20.7825C0.934814 20.5217 0.934814 20.2608 0.934814 19.9999C0.934814 14.6086 3.10873 9.73905 6.67394 6.17383L15.5435 15.0434Z" stroke="#EA4335" stroke-miterlimit="10"/>
<path d="M21.2825 1.21742C21.2825 6.60873 19.1086 11.4783 15.5434 15.0435L6.67383 6.17394C10.1521 2.60873 15.1086 0.434814 20.4999 0.434814C20.7608 0.434814 21.0217 0.434814 21.2825 0.434814C21.2825 0.695684 21.2825 0.956554 21.2825 1.21742Z" stroke="#EA4335" stroke-miterlimit="10"/>
<path d="M6.67383 6.17383L34.326 33.826" stroke="#EA4335" stroke-miterlimit="10"/>
</svg>
