<svg width="41" height="40" viewBox="0 0 41 40" fill="none" xmlns="http://www.w3.org/2000/svg">
<g clip-path="url(#clip0_135_964)">
<path d="M40.0652 20C40.0652 22.7826 39.4565 25.4783 38.4131 27.8261C37.3696 26.9566 33.6305 24.4348 29.4565 29.3044C27.1957 31.9131 23.8044 33.5652 19.9783 33.5652C13.0218 33.5652 7.45654 28 7.45654 21.0435C7.45654 17.7392 8.76089 14.6957 10.8478 12.5218C15.5435 6.69568 10.5 3.21742 10.5 3.21742C13.4565 1.47829 16.8478 0.434814 20.5 0.434814C20.7609 0.434814 21.0218 0.434814 21.2826 0.434814C26.3261 0.608727 30.9348 2.78264 34.3261 6.17394C37.5435 9.39134 39.6305 13.6522 39.9783 18.3479C40.0652 18.8696 40.0652 19.4783 40.0652 20Z" stroke="#EA4335" stroke-miterlimit="10"/>
<path d="M38.4128 27.8262C37.4563 30.0871 36.065 32.0871 34.3259 33.8262C30.7607 37.3914 25.8911 39.5654 20.5867 39.5654H20.4998C15.1085 39.5654 10.2389 37.3914 6.6737 33.8262C3.2824 30.4349 1.19544 25.9132 0.93457 20.7827C0.93457 20.5219 0.93457 20.261 0.93457 20.0001C0.93457 14.6088 3.10848 9.73927 6.6737 6.17405C7.80413 5.04362 9.10848 4.00014 10.4998 3.21753C10.4998 3.21753 15.6302 6.78275 10.8476 12.5219C8.76066 14.7827 7.45631 17.8262 7.45631 21.1306C7.45631 28.0871 13.0215 33.6523 19.978 33.6523C23.7172 33.6523 27.1085 32.0001 29.4563 29.3914C33.6302 24.5219 37.3693 27.0436 38.4128 27.8262Z" stroke="#EA4335" stroke-miterlimit="10"/>
<path d="M38.6735 28.087C38.6735 28.087 38.5865 28.0001 38.4126 27.8262" stroke="#EA4335" stroke-miterlimit="10"/>
<path d="M40.065 20C40.065 25.3913 37.8911 30.2609 34.3259 33.8261C30.7607 37.3913 25.8911 39.5652 20.5867 39.5652H20.4998C15.1085 39.5652 10.2389 37.3913 6.6737 33.8261C3.2824 30.4348 1.19544 25.9131 0.93457 20.7826C0.93457 20.5218 0.93457 20.2609 0.93457 20C0.93457 14.6087 3.10848 9.73916 6.6737 6.17394C10.2389 2.60873 15.1085 0.434814 20.4998 0.434814C20.7607 0.434814 21.0215 0.434814 21.2824 0.434814C26.3259 0.608727 30.9346 2.78264 34.3259 6.17394C37.5433 9.39134 39.6302 13.6522 39.978 18.3479C40.065 18.8696 40.065 19.4783 40.065 20Z" stroke="#EA4335" stroke-miterlimit="10"/>
</g>
<defs>
<clipPath id="clip0_135_964">
<rect width="40" height="40" fill="white" transform="translate(0.5)"/>
</clipPath>
</defs>
</svg>
