<svg width="41" height="40" viewBox="0 0 41 40" fill="none" xmlns="http://www.w3.org/2000/svg">
<path d="M40.0652 20.0001C40.0652 25.3914 37.8913 30.2609 34.3261 33.8262C30.7609 37.3914 25.8913 39.5653 20.587 39.5653C20.5 39.0436 20.5 38.5218 20.5 37.9131C20.5 32.9566 22.3261 28.3479 25.4565 24.9566C29.0217 20.9566 34.2391 18.4349 39.9783 18.3479C40.0652 18.8696 40.0652 19.4783 40.0652 20.0001Z" stroke="#EA4335" stroke-miterlimit="10"/>
<path d="M39.978 18.3479C34.152 18.3479 29.0215 20.8696 25.4563 24.9566C22.4128 28.4348 20.4998 32.9565 20.4998 37.9131C20.4998 38.4348 20.4998 39.0435 20.5867 39.5652H20.4998C15.1085 39.5652 10.2389 37.3913 6.6737 33.8261C3.2824 30.4348 1.19544 25.9131 0.93457 20.7826C1.19544 20.7826 1.45631 20.7826 1.71718 20.7826C7.10848 20.7826 11.978 18.6087 15.5433 15.0435C19.1085 11.4783 21.2824 6.60873 21.2824 1.21742C21.2824 0.956553 21.2824 0.695684 21.2824 0.434814C26.3259 0.608727 30.9346 2.78264 34.3259 6.17394C37.5433 9.39134 39.6302 13.6522 39.978 18.3479Z" stroke="#EA4335" stroke-miterlimit="10"/>
<path d="M21.2824 1.21742C21.2824 6.60873 19.1085 11.4783 15.5433 15.0435C11.978 18.6087 7.10848 20.7826 1.71718 20.7826C1.45631 20.7826 1.19544 20.7826 0.93457 20.7826C0.93457 20.5218 0.93457 20.2609 0.93457 20C0.93457 14.6087 3.10848 9.73916 6.6737 6.17395C10.2389 2.60873 15.1085 0.434814 20.4998 0.434814C20.7607 0.434814 21.0215 0.434814 21.2824 0.434814C21.2824 0.695684 21.2824 0.956554 21.2824 1.21742Z" stroke="#EA4335" stroke-miterlimit="10"/>
<path d="M14.2393 11.3042L18.5001 15.5651" stroke="#EA4335" stroke-miterlimit="10"/>
<path d="M16.3262 8.34766L21.3696 11.652" stroke="#EA4335" stroke-miterlimit="10"/>
<path d="M17.8042 5.13037L23.3694 7.56515" stroke="#EA4335" stroke-miterlimit="10"/>
<path d="M8.5 16.4346L11.3696 21.7389" stroke="#EA4335" stroke-miterlimit="10"/>
<path d="M11.2827 14.3477L15.0218 19.1303" stroke="#EA4335" stroke-miterlimit="10"/>
<path d="M27.7174 26.6957L23.4565 22.4348" stroke="#EA4335" stroke-miterlimit="10"/>
<path d="M25.6304 29.6522L20.5869 26.3479" stroke="#EA4335" stroke-miterlimit="10"/>
<path d="M24.1521 32.7827L18.6738 30.3479" stroke="#EA4335" stroke-miterlimit="10"/>
<path d="M33.8046 22.174L30.9351 16.7827" stroke="#EA4335" stroke-miterlimit="10"/>
<path d="M31.0218 24.0871L27.2827 19.3044" stroke="#EA4335" stroke-miterlimit="10"/>
</svg>
