<svg width="38" height="40" viewBox="0 0 38 40" fill="none" xmlns="http://www.w3.org/2000/svg">
<g clip-path="url(#clip0_135_996)">
<path d="M37.2828 8.52079C37.2828 10.3469 37.1215 12.086 36.8795 13.8251C33.9756 12.8686 31.3943 11.2164 29.3777 9.04253L29.2971 8.95558C27.1998 6.69471 25.5865 3.99906 24.6992 0.86862C26.3125 0.520794 28.0064 0.433838 29.7004 0.433838C30.023 0.433838 30.3457 0.433838 30.5877 0.433838C31.233 0.433838 31.8783 0.520794 32.5236 0.607751C33.7336 0.694707 34.7822 1.3034 35.5888 2.17297C36.3955 3.04253 36.9601 4.17297 37.0408 5.47732C37.1215 6.25992 37.1215 7.04253 37.2021 7.82514C37.2828 8.08601 37.2828 8.34688 37.2828 8.52079Z" stroke="#EA4335" stroke-miterlimit="10"/>
<path d="M2.91992 38.1739C2.83925 38.0869 2.67793 38 2.59726 37.826L2.5166 37.7391C1.70996 36.8695 1.14531 35.7391 1.06465 34.4347C0.983984 33.6521 0.983984 32.8695 0.90332 32.0869C0.90332 31.826 0.90332 31.5652 0.90332 31.3043C0.90332 29.5652 1.06465 27.826 1.30664 26.0869H1.3873C1.14531 27.826 0.983984 29.5652 0.983984 31.3913C0.983984 32.4347 1.06465 33.4782 1.14531 34.4347C1.22598 35.7391 1.79062 36.8695 2.59726 37.7391C2.67793 37.913 2.75859 38.0869 2.91992 38.1739Z" stroke="#EA4335" stroke-miterlimit="10"/>
<path d="M13.4061 39.0434C11.7928 39.3912 10.0989 39.4782 8.40496 39.4782C8.08231 39.4782 7.75965 39.4782 7.51766 39.4782C6.87235 39.4782 6.22704 39.3912 5.58173 39.3043C4.61376 39.2173 3.72646 38.8695 3.00048 38.2608L2.91982 38.1738C2.83916 38.0869 2.67783 37.9999 2.59716 37.826C1.79053 36.9564 1.22588 35.826 1.14521 34.5217C1.06455 33.4782 0.983887 32.5217 0.983887 31.4782C0.983887 29.6521 1.14521 27.913 1.38721 26.1738C4.21044 27.1303 6.79169 28.7825 8.88895 30.9564C8.88895 30.9564 8.96961 30.9564 8.96961 31.0434C10.9862 33.2173 12.5188 35.9999 13.4061 39.0434Z" stroke="#EA4335" stroke-miterlimit="10"/>
<path d="M36.8794 13.8252C34.5402 28.4339 22.6826 39.5643 8.48573 39.5643C7.51776 39.5643 6.54979 39.4773 5.66249 39.3904C4.69452 39.3034 3.72656 38.8687 3.00058 38.26C3.72656 38.8687 4.61386 39.2165 5.58183 39.3904C6.22714 39.4773 6.87245 39.4773 7.51776 39.5643C7.84042 39.5643 8.16307 39.5643 8.40506 39.5643C10.099 39.5643 11.7929 39.3904 13.4062 39.1295C12.5189 36.086 10.9863 33.3034 8.88905 31.1295L8.80838 31.0426C6.71112 28.8687 4.21054 27.2165 1.30664 26.26C3.48457 13.3034 12.8416 3.12952 24.6992 0.868652C25.5865 3.91213 27.1191 6.69474 29.2163 8.86865L29.297 8.95561C31.3943 11.2165 33.9755 12.8687 36.8794 13.8252Z" stroke="#EA4335" stroke-miterlimit="10"/>
<path d="M8.88916 31.0435L14.1323 25.3913L16.7942 22.5217L19.3755 19.6522L22.0374 16.8695L24.6993 14L29.2971 9.04346" stroke="#EA4335" stroke-miterlimit="10"/>
<path d="M12.1963 23.3042L16.1488 27.5651" stroke="#EA4335" stroke-miterlimit="10"/>
<path d="M14.7773 20.4346L18.7299 24.6954" stroke="#EA4335" stroke-miterlimit="10"/>
<path d="M17.4395 17.5649L21.392 21.8258" stroke="#EA4335" stroke-miterlimit="10"/>
<path d="M20.1016 14.6956L24.0541 18.9564" stroke="#EA4335" stroke-miterlimit="10"/>
<path d="M22.7632 11.9128L26.7157 16.1737" stroke="#EA4335" stroke-miterlimit="10"/>
</g>
<defs>
<clipPath id="clip0_135_996">
<rect width="37.1861" height="40" fill="white" transform="translate(0.5)"/>
</clipPath>
</defs>
</svg>
