<svg width="41" height="40" viewBox="0 0 41 40" fill="none" xmlns="http://www.w3.org/2000/svg">
<g clip-path="url(#clip0_135_1011)">
<path d="M40.065 8.52177C40.065 25.6522 26.152 39.5652 9.02153 39.5652C7.45631 39.5652 5.80414 39.4783 4.32587 39.2174C2.76066 38.9565 1.54327 37.7392 1.2824 36.1739C1.02153 34.6087 0.93457 33.0435 0.93457 31.4783C0.93457 14.3479 14.8476 0.434814 31.978 0.434814C33.5433 0.434814 35.1954 0.521771 36.6737 0.78264C38.2389 1.04351 39.4563 2.2609 39.7172 3.82612C39.978 5.39134 40.065 6.95655 40.065 8.52177Z" stroke="#EA4335" stroke-miterlimit="10"/>
<path d="M39.1955 1.30444L1.8042 38.6957" stroke="#EA4335" stroke-miterlimit="10"/>
<path d="M13.0215 23.3044L17.2824 27.5653" stroke="#EA4335" stroke-miterlimit="10"/>
<path d="M15.8042 20.4348L20.0651 24.6957" stroke="#EA4335" stroke-miterlimit="10"/>
<path d="M18.6738 17.5652L22.9347 21.8261" stroke="#EA4335" stroke-miterlimit="10"/>
<path d="M21.5435 14.6958L25.8043 18.9567" stroke="#EA4335" stroke-miterlimit="10"/>
<path d="M24.4126 11.9131L28.6735 16.174" stroke="#EA4335" stroke-miterlimit="10"/>
</g>
<defs>
<clipPath id="clip0_135_1011">
<rect width="40" height="40" fill="white" transform="translate(0.5)"/>
</clipPath>
</defs>
</svg>
