<svg width="38" height="40" viewBox="0 0 38 40" fill="none" xmlns="http://www.w3.org/2000/svg">
<g clip-path="url(#clip0_135_1023)">
<path d="M2.43572 31.7382C-1.27482 27.7382 1.87107 17.8251 9.45348 9.65122C16.6326 1.91208 25.2636 -1.47922 29.2968 1.56426L30.3454 2.69469" stroke="#EA4335" stroke-miterlimit="10"/>
<path d="M30.4261 2.69562L29.3774 1.56519C29.5388 1.7391 29.7808 1.91301 29.9421 2.08692C30.1034 2.26084 30.2647 2.52171 30.4261 2.69562Z" stroke="#EA4335" stroke-miterlimit="10"/>
<path d="M30.4263 2.69556L35.6695 8.26077C39.38 12.2608 36.2341 22.1738 28.6517 30.3477C21.392 38.1738 12.7609 41.5651 8.72772 38.4347L7.75976 37.3912L2.5166 31.739" stroke="#EA4335" stroke-miterlimit="10"/>
<path d="M2.43555 31.739C3.48418 32.8695 4.85546 33.3912 6.54941 33.3912C11.0666 33.4782 17.3584 30.0869 22.8435 24.1738C28.4093 18.2608 31.5552 11.3912 31.4746 6.6086C31.4746 5.13034 31.0712 3.73903 30.4259 2.69556" stroke="#EA4335" stroke-miterlimit="10"/>
<path d="M8.72773 38.3467C8.5664 38.173 8.32441 37.9992 8.16309 37.8255C8.00176 37.7386 7.84043 37.5649 7.75977 37.3911L8.72773 38.3467Z" stroke="#EA4335" stroke-miterlimit="10"/>
<path d="M8.72754 38.4338V38.3477" stroke="#EA4335" stroke-miterlimit="10"/>
</g>
<defs>
<clipPath id="clip0_135_1023">
<rect width="37.1054" height="40" fill="white" transform="translate(0.5)"/>
</clipPath>
</defs>
</svg>
