<svg width="16" height="29" viewBox="0 0 16 29" fill="none" xmlns="http://www.w3.org/2000/svg">
<path d="M0.982015 2.31742L12.8575 14.5L0.982016 26.6827C0.769411 26.9003 0.650386 27.1925 0.650386 27.4968C0.650387 27.8011 0.769411 28.0933 0.982016 28.3109C1.08528 28.4163 1.20853 28.5 1.34456 28.5572C1.48059 28.6144 1.62665 28.6438 1.7742 28.6438C1.92175 28.6438 2.06782 28.6144 2.20385 28.5572C2.33987 28.5 2.46313 28.4163 2.56639 28.3109L15.2024 15.3507C15.4242 15.1231 15.5484 14.8179 15.5484 14.5C15.5484 14.1822 15.4242 13.877 15.2024 13.6494L2.56883 0.689165C2.46549 0.583027 2.34193 0.498669 2.20545 0.441067C2.06897 0.383465 1.92234 0.35379 1.7742 0.35379C1.62607 0.35379 1.47943 0.383465 1.34295 0.441067C1.20647 0.498669 1.08292 0.583027 0.979576 0.689165C0.766972 0.906828 0.647948 1.19902 0.647948 1.50329C0.647948 1.80756 0.766972 2.09975 0.979576 2.31742L0.982015 2.31742Z" fill="#3C4043"/>
</svg>
