<svg width="16" height="29" viewBox="0 0 16 29" fill="none" xmlns="http://www.w3.org/2000/svg">
<path d="M15.2143 2.31742L3.33877 14.5L15.2143 26.6827C15.4269 26.9003 15.5459 27.1925 15.5459 27.4968C15.5459 27.8011 15.4269 28.0933 15.2143 28.3109C15.111 28.4163 14.9878 28.5 14.8517 28.5572C14.7157 28.6144 14.5696 28.6438 14.4221 28.6438C14.2745 28.6438 14.1285 28.6144 13.9924 28.5572C13.8564 28.5 13.7332 28.4163 13.6299 28.3109L0.993898 15.3507C0.772051 15.1231 0.647892 14.8179 0.647892 14.5C0.647892 14.1822 0.772052 13.877 0.993898 13.6494L13.6275 0.689165C13.7308 0.583027 13.8544 0.498669 13.9908 0.441067C14.1273 0.383465 14.274 0.35379 14.4221 0.35379C14.5702 0.35379 14.7169 0.383465 14.8533 0.441067C14.9898 0.498669 15.1134 0.583027 15.2167 0.689165C15.4293 0.906828 15.5483 1.19902 15.5483 1.50329C15.5483 1.80756 15.4293 2.09975 15.2167 2.31742L15.2143 2.31742Z" fill="#3C4043"/>
</svg>
