<svg width="19" height="19" viewBox="0 0 19 19" fill="none" xmlns="http://www.w3.org/2000/svg">
<path d="M17.5038 0.589844L18.4087 1.49544L8.81512 11.089L7.91016 10.1841L17.5038 0.589844Z" fill="#3184EF"/>
<path d="M18.5997 6.7999H17.3197V1.6799H12.1997V0.399902H18.5997V6.7999ZM15.3997 18.3199H2.59969C1.51169 18.3199 0.679688 17.4879 0.679688 16.3999V3.5999C0.679688 2.5119 1.51169 1.6799 2.59969 1.6799H9.63969V2.9599H2.59969C2.21569 2.9599 1.95969 3.2159 1.95969 3.5999V16.3999C1.95969 16.7839 2.21569 17.0399 2.59969 17.0399H15.3997C15.7837 17.0399 16.0397 16.7839 16.0397 16.3999V9.3599H17.3197V16.3999C17.3197 17.4879 16.4877 18.3199 15.3997 18.3199Z" fill="#3184EF"/>
</svg>
