<svg width="848" height="653" viewBox="0 0 848 653" fill="none" xmlns="http://www.w3.org/2000/svg">
<path d="M25.1133 106.911C25.1133 106.911 231.5 -98.4992 292.5 64.0005C353.5 226.5 414.5 186.5 414.5 186.5C414.5 186.5 652.519 6.02184 721 64.0005C848.669 172.09 901.357 225.009 772.065 255.011C642.773 285.012 702.831 345.248 611 355.425C497.734 367.977 470.572 355.425 316.291 309.922C162.01 264.42 105.513 355.425 105.513 355.425C105.513 355.425 96.821 365.497 25.1126 438C-46.5957 510.504 66.4698 544.377 95.7349 621.939C125 699.501 244.04 597.938 244.04 597.938" stroke="#EA4335" stroke-width="2"/>
</svg>
