<svg width="299" height="744" viewBox="0 0 299 744" fill="none" xmlns="http://www.w3.org/2000/svg">
<path d="M4.49995 88.4999C-12.0001 62.5 41.6827 15.6843 86 4.49991C146.527 -10.7754 183.97 28.4425 201 88.4999C214.435 135.877 205 221 186.5 209.5C168 198 113.859 220.684 111 264C108.147 307.233 148.383 286.842 179 317.5C202.931 341.463 226.874 354.235 229.5 388C234.031 446.26 182.769 404.375 166.5 460.5C159.813 483.568 91.1341 505.335 101.5 527C121.928 569.696 180.963 561.415 222 585C274.224 615.015 301.276 614.383 297.5 674.5C295.72 702.848 274.5 743.5 274.5 743.5" stroke="#EA4335" stroke-width="2"/>
</svg>
