<svg width="325" height="756" viewBox="0 0 325 756" fill="none" xmlns="http://www.w3.org/2000/svg">
<path d="M14.0535 94.3107C-2.44646 68.3108 51.2363 21.4951 95.5535 10.3107C156.081 -4.96465 193.524 34.2533 210.554 94.3107C223.988 141.688 214.553 226.811 196.054 215.311C177.554 203.811 123.412 226.494 120.554 269.811C117.7 313.044 157.937 292.653 188.554 323.311C212.485 347.274 236.428 360.046 239.054 393.811C243.584 452.07 192.323 410.186 176.054 466.311C169.367 489.378 100.688 511.146 111.054 532.811C131.482 575.507 190.517 567.226 231.554 590.811C283.778 620.825 310.829 620.194 307.054 680.311C305.273 708.659 284.054 749.311 284.054 749.311" stroke="#EA4335" stroke-width="2"/>
<path d="M153.667 301L159.494 305.71C160.161 306.249 159.885 307.322 159.042 307.472L152.554 308.633" stroke="#EA4335" stroke-width="2"/>
<path d="M133.322 245L126.873 248.816C126.136 249.253 125.227 248.62 125.38 247.777L126.559 241.292" stroke="#EA4335" stroke-width="2"/>
<path d="M185.719 35L187.879 42.1755C188.125 42.996 187.293 43.7268 186.512 43.376L180.498 40.6779" stroke="#EA4335" stroke-width="2"/>
<path d="M142.889 501L135.487 502.167C134.641 502.3 134.029 501.377 134.483 500.65L137.971 495.057" stroke="#EA4335" stroke-width="2"/>
<path d="M153.667 562L159.494 566.71C160.161 567.249 159.885 568.322 159.042 568.472L152.554 569.633" stroke="#EA4335" stroke-width="2"/>
</svg>
