<svg width="59" height="61" viewBox="0 0 59 61" fill="none" xmlns="http://www.w3.org/2000/svg">
<path d="M78.46 20.4526C78.46 31.3404 74.1374 41.0185 67.0483 48.1043C59.9592 55.19 50.2764 59.5106 39.7292 59.5106H39.5563C28.8362 59.5106 19.1535 55.19 12.0643 48.1043C5.32103 41.3642 1.1713 32.2045 0.652588 22.008C0.652588 21.4895 0.652588 20.971 0.652588 20.4526C0.652588 9.5647 4.97522 -0.113407 12.0643 -7.19916C19.1535 -14.4577 28.8362 -18.7783 39.5563 -18.7783C40.075 -18.7783 40.5937 -18.7783 41.1125 -18.7783C51.141 -18.4327 60.305 -14.1121 67.0483 -7.37198C73.4458 -0.977523 77.5955 7.49082 78.2871 16.9961C78.46 18.2059 78.46 19.2428 78.46 20.4526Z" stroke="#EA4335" stroke-miterlimit="10"/>
<path d="M23.3047 -15.3202C19.5007 -13.9376 15.1781 -7.02467 22.2672 -8.06161C29.3564 -9.09855 56.6754 -16.1843 56.1567 -6.5062C55.4651 0.406726 28.4918 -4.95079 23.1318 0.233903C15.1781 8.01095 33.1603 29.0954 34.8893 31.6877C38.0016 36.5268 32.6416 41.193 22.0943 26.8487C15.1781 16.9978 11.72 9.39353 9.64513 8.52942C4.80378 6.45554 -0.210479 16.6521 1.34567 26.6759" stroke="#EA4335" stroke-miterlimit="10"/>
<path d="M55.4637 -15.3202C55.4637 -15.3202 69.9878 -8.92573 66.011 -0.80304C62.3799 6.80118 33.6776 0.75237 30.9112 4.20883C28.1447 7.6653 33.5047 11.4674 40.7668 10.4305C48.0288 9.39353 55.6366 9.04789 58.2302 9.04789C60.8238 9.22071 64.9735 10.7761 64.8006 16.3065C64.6277 21.8368 64.8006 27.7128 55.6366 41.7115C52.6972 46.0321 52.3514 49.4885 56.6741 47.5875C60.9967 45.6864 69.4691 38.6007 69.9878 25.6389C69.8149 16.9978 75.8666 17.3434 78.1143 25.6389" stroke="#EA4335" stroke-miterlimit="10"/>
<path d="M59.6134 53.982C59.6134 53.982 44.0519 61.9318 41.977 54.6732C40.5938 49.6614 45.0893 48.9701 51.3139 38.6007C56.5011 29.9595 58.9218 21.664 56.1553 20.4542C53.3888 19.2445 53.043 21.1455 48.7203 29.441C44.3977 37.7366 40.9396 46.7234 34.1963 45.6864C27.453 44.6495 20.3638 39.4648 14.3122 28.2313C13.4476 26.6759 9.64371 14.5782 7.56884 18.2075C5.49398 21.8368 6.1856 29.7867 13.6205 39.1192C18.289 44.9951 24.8594 47.9331 23.6491 49.6614C22.4387 51.3896 17.7703 52.7722 12.9289 48.9701" stroke="#EA4335" stroke-miterlimit="10"/>
</svg>
