<svg width="56" height="61" viewBox="0 0 56 61" fill="none" xmlns="http://www.w3.org/2000/svg">
<path d="M3.64293 43.8494C-3.70664 35.8477 2.52452 16.0173 17.5432 -0.334002C31.763 -15.8156 48.8588 -22.5997 56.8475 -16.5114L58.9245 -14.25" stroke="#EA4335" stroke-miterlimit="10"/>
<path d="M59.0843 -14.2483L69.4696 -3.11547C76.8192 4.88625 70.588 24.7166 55.5693 41.0679C41.1897 56.7235 24.094 63.5075 16.1053 57.2453L14.188 55.1579L3.80273 43.8511" stroke="#EA4335" stroke-miterlimit="10"/>
<path d="M3.64294 43.8511C5.72 46.1125 8.43615 47.1562 11.7914 47.1562C20.7387 47.3301 33.201 40.5461 44.0656 28.7174C55.09 16.8888 61.3211 3.14675 61.1614 -6.42052C61.1614 -9.37768 60.3625 -12.1609 59.0843 -14.2483" stroke="#EA4335" stroke-miterlimit="10"/>
<path d="M16.1053 57.0696C15.7857 56.722 15.3064 56.3744 14.9869 56.0269C14.6673 55.8531 14.3478 55.5055 14.188 55.158L16.1053 57.0696Z" stroke="#EA4335" stroke-miterlimit="10"/>
<path d="M16.1052 57.2438V57.0714" stroke="#EA4335" stroke-miterlimit="10"/>
</svg>
