<svg width="56" height="61" viewBox="0 0 56 61" fill="none" xmlns="http://www.w3.org/2000/svg">
<path d="M73.5029 -2.5952C73.5029 1.05776 73.1797 4.53677 72.6949 8.01577C66.8769 6.10232 61.7053 2.79726 57.6651 -1.5515L57.5034 -1.72545C53.3016 -6.24816 50.0693 -11.6406 48.2916 -17.9028C51.5238 -18.5986 54.9177 -18.7726 58.3115 -18.7726C58.9579 -18.7726 59.6044 -18.7726 60.0892 -18.7726C61.3821 -18.7726 62.675 -18.5986 63.9679 -18.4247C66.392 -18.2507 68.493 -17.0331 70.1091 -15.2936C71.7252 -13.5541 72.8565 -11.2927 73.0181 -8.68346C73.1797 -7.11791 73.1797 -5.55235 73.3413 -3.9868C73.5029 -3.46495 73.5029 -2.9431 73.5029 -2.5952Z" stroke="#EA4335" stroke-miterlimit="10"/>
<path d="M4.65672 56.7235C4.49511 56.5496 4.17189 56.3756 4.01028 56.0277L3.84867 55.8538C2.23256 54.1143 1.10129 51.8529 0.939677 49.2437C0.778066 47.6781 0.778066 46.1126 0.616455 44.547C0.616455 44.0252 0.616455 43.5033 0.616455 42.9815C0.616455 39.5024 0.939677 36.0234 1.42451 32.5444H1.58612C1.10129 36.0234 0.778066 39.5024 0.778066 43.1554C0.778066 45.2428 0.939677 47.3302 1.10129 49.2437C1.2629 51.8529 2.39417 54.1143 4.01028 55.8538C4.17189 56.2017 4.3335 56.5496 4.65672 56.7235Z" stroke="#EA4335" stroke-miterlimit="10"/>
<path d="M25.6664 58.4631C22.4342 59.1589 19.0403 59.3329 15.6465 59.3329C15.0001 59.3329 14.3536 59.3329 13.8688 59.3329C12.5759 59.3329 11.283 59.1589 9.99013 58.985C8.0508 58.811 6.27309 58.1152 4.81859 56.8975L4.65698 56.7236C4.49537 56.5496 4.17215 56.3757 4.01054 56.0278C2.39443 54.2883 1.26315 52.0269 1.10154 49.4177C0.939931 47.3303 0.77832 45.4168 0.77832 43.3294C0.77832 39.6765 1.10154 36.1975 1.58637 32.7184C7.24275 34.6319 12.4143 37.937 16.6162 42.2857C16.6162 42.2857 16.7778 42.2857 16.7778 42.4597C20.8181 46.8084 23.8887 52.3748 25.6664 58.4631Z" stroke="#EA4335" stroke-miterlimit="10"/>
<path d="M72.6949 8.01577C68.0082 37.2394 44.2514 59.5051 15.8079 59.5051C13.8686 59.5051 11.9293 59.3311 10.1515 59.1572C8.21221 58.9832 6.27288 58.1135 4.81839 56.8958C6.27288 58.1135 8.0506 58.8093 9.98993 59.1572C11.2828 59.3311 12.5757 59.3311 13.8686 59.5051C14.515 59.5051 15.1615 59.5051 15.6463 59.5051C19.0401 59.5051 22.434 59.1572 25.6662 58.6353C23.8885 52.5471 20.8179 46.9806 16.616 42.6319L16.4544 42.4579C12.2525 38.1092 7.24255 34.8041 1.42456 32.8907C5.78805 6.97207 24.5349 -13.3801 48.2917 -17.9028C50.0694 -11.8146 53.14 -6.24816 57.3419 -1.8994L57.5035 -1.72545C61.7054 2.79726 66.8769 6.10232 72.6949 8.01577Z" stroke="#EA4335" stroke-miterlimit="10"/>
<path d="M16.616 42.4596L27.1207 31.1529L32.4538 25.4125L37.6254 19.6721L42.9585 14.1057L48.2917 8.36537L57.5035 -1.5498" stroke="#EA4335" stroke-miterlimit="10"/>
<path d="M23.2419 26.978L31.1609 35.5016" stroke="#EA4335" stroke-miterlimit="10"/>
<path d="M28.4135 21.2377L36.3324 29.7612" stroke="#EA4335" stroke-miterlimit="10"/>
<path d="M33.7466 15.4973L41.6655 24.0209" stroke="#EA4335" stroke-miterlimit="10"/>
<path d="M39.0798 9.75696L46.9988 18.2805" stroke="#EA4335" stroke-miterlimit="10"/>
<path d="M44.413 4.19055L52.3319 12.7141" stroke="#EA4335" stroke-miterlimit="10"/>
</svg>
