<svg width="59" height="61" viewBox="0 0 59 61" fill="none" xmlns="http://www.w3.org/2000/svg">
<path d="M78.2872 20.3678C78.2872 31.1527 73.9645 40.894 66.8754 48.0259C59.9592 54.9839 50.2765 59.5067 39.5563 59.5067H39.3834C28.6633 59.5067 18.9806 55.1579 11.8915 48.0259L39.5563 20.3678L66.8754 -7.29028C73.2729 -0.85412 77.4226 7.66945 78.1143 17.0628C78.2872 18.1065 78.2872 19.1502 78.2872 20.3678Z" stroke="#EA4335" stroke-miterlimit="10"/>
<path d="M67.0482 48.026C60.132 54.984 50.4493 59.5067 39.7292 59.5067C39.5563 58.463 39.5563 57.4193 39.5563 56.2016C39.5563 46.2865 43.1873 37.241 49.4119 30.283L67.0482 48.026Z" stroke="#EA4335" stroke-miterlimit="10"/>
<path d="M78.4601 20.3679C78.4601 31.1528 74.1375 40.894 67.0484 48.026L49.412 30.283C56.5011 22.2813 66.8754 17.2368 78.2872 17.2368C78.4601 18.2805 78.4601 19.3242 78.4601 20.3679Z" stroke="#EA4335" stroke-miterlimit="10"/>
<path d="M66.8754 -7.29027L39.5563 20.3678L12.0643 47.852C5.32103 41.0679 1.1713 32.0225 0.652588 21.7594C0.652588 21.2376 0.652588 20.7157 0.652588 20.1939C0.652588 9.40896 4.97522 -0.332258 12.0643 -7.46422C18.9806 -14.4222 28.8362 -18.771 39.5563 -18.771C40.075 -18.771 40.5937 -18.771 41.1125 -18.771C51.141 -18.2491 60.305 -14.0743 66.8754 -7.29027Z" stroke="#EA4335" stroke-miterlimit="10"/>
<path d="M29.7007 10.4527C22.6116 17.5846 12.9289 21.9334 2.20874 21.9334C1.69002 21.9334 1.1713 21.9334 0.652588 21.9334C0.652588 21.4115 0.652588 20.8897 0.652588 20.3678C0.652588 9.5829 4.97522 -0.158318 12.0643 -7.29028L29.7007 10.4527Z" stroke="#EA4335" stroke-miterlimit="10"/>
<path d="M41.1124 -17.2054C41.1124 -6.42052 36.7898 3.3207 29.7007 10.4527L12.0643 -7.29027C18.9805 -14.4222 28.8362 -18.771 39.5563 -18.771C40.075 -18.771 40.5937 -18.771 41.1124 -18.771C41.1124 -18.2491 41.1124 -17.7273 41.1124 -17.2054Z" stroke="#EA4335" stroke-miterlimit="10"/>
<path d="M12.0643 -7.29028L67.0483 48.0259" stroke="#EA4335" stroke-miterlimit="10"/>
</svg>
