<svg width="65" height="32" viewBox="0 0 65 32" fill="none" xmlns="http://www.w3.org/2000/svg">
<path d="M83.8963 -1.46933C83.8963 7.57378 79.2765 15.6121 71.7002 21.4973C64.1238 27.3825 53.7757 30.971 42.5035 30.971H42.3187C30.8618 30.971 20.5136 27.3825 12.9373 21.4973C5.73051 15.8992 1.29558 8.29148 0.741211 -0.177458C0.741211 -0.608082 0.741211 -1.03871 0.741211 -1.46933C0.741211 -10.5124 5.36094 -18.5508 12.9373 -24.436C20.5136 -30.4647 30.8618 -34.0532 42.3187 -34.0532C42.8731 -34.0532 43.4275 -34.0532 43.9818 -34.0532C54.6996 -33.7661 64.4934 -30.1776 71.7002 -24.5795C78.5374 -19.2685 82.9723 -12.2349 83.7115 -4.34016C83.8963 -3.33537 83.8963 -2.47412 83.8963 -1.46933Z" stroke="#EA4335" stroke-miterlimit="10"/>
<path d="M24.9502 -31.1809C20.8848 -30.0326 16.2651 -24.2909 23.8414 -25.1522C31.4178 -26.0134 60.6144 -31.8986 60.0601 -23.8603C59.3209 -18.1187 30.4938 -22.5684 24.7654 -18.2622C16.2651 -11.8028 35.4831 5.7092 37.331 7.86232C40.6572 11.8815 34.9288 15.7571 23.6567 3.84316C16.2651 -4.33869 12.5693 -10.6545 10.3518 -11.3722C5.17775 -13.0947 -0.181128 -4.62577 1.48197 3.69962" stroke="#EA4335" stroke-miterlimit="10"/>
<path d="M59.3195 -31.1809C59.3195 -31.1809 74.8418 -25.8699 70.5917 -19.1234C66.7111 -12.8076 36.0361 -17.8316 33.0795 -14.9607C30.1229 -12.0899 35.8513 -8.93201 43.6125 -9.79326C51.3736 -10.6545 59.5043 -10.9416 62.2761 -10.9416C65.048 -10.798 69.4829 -9.50618 69.2981 -4.91286C69.1133 -0.31954 69.2981 4.56086 59.5043 16.1877C56.3629 19.7762 55.9933 22.6471 60.613 21.0681C65.2328 19.4892 74.2874 13.604 74.8418 2.83837C74.657 -4.33869 81.1246 -4.05161 83.5269 2.83837" stroke="#EA4335" stroke-miterlimit="10"/>
<path d="M63.7541 26.3791C63.7541 26.3791 47.1231 32.982 44.9057 26.9532C43.4273 22.7905 48.2319 22.2164 54.8843 13.6039C60.4279 6.42684 63.015 -0.463142 60.0583 -1.46793C57.1017 -2.47272 56.7321 -0.893768 52.1124 5.99621C47.4927 12.8862 43.7969 20.3503 36.5901 19.4891C29.3834 18.6278 21.807 14.3216 15.3394 4.99143C14.4155 3.69956 10.3501 -6.34834 8.13265 -3.33397C5.91518 -0.319603 6.65434 6.2833 14.6003 14.0345C19.5896 18.9149 26.6115 21.3551 25.318 22.7905C24.0245 24.226 19.0352 25.3743 13.8611 22.2164" stroke="#EA4335" stroke-miterlimit="10"/>
</svg>
