<svg width="15" height="29" viewBox="0 0 15 29" fill="none" xmlns="http://www.w3.org/2000/svg">
<path d="M14.6161 2.42996L2.74063 14.6126L14.6161 26.7952C14.8287 27.0129 14.9478 27.3051 14.9478 27.6093C14.9478 27.9136 14.8287 28.2058 14.6161 28.4235C14.5129 28.5289 14.3896 28.6126 14.2536 28.6697C14.1176 28.7269 13.9715 28.7563 13.8239 28.7563C13.6764 28.7563 13.5303 28.7269 13.3943 28.6697C13.2583 28.6126 13.135 28.5289 13.0318 28.4235L0.395753 15.4633C0.173907 15.2357 0.0497471 14.9304 0.0497471 14.6126C0.0497471 14.2948 0.173907 13.9895 0.395754 13.7619L13.0293 0.801714C13.1327 0.695576 13.2562 0.611217 13.3927 0.553616C13.5292 0.496014 13.6758 0.466339 13.8239 0.466339C13.9721 0.466339 14.1187 0.496014 14.2552 0.553616C14.3917 0.611217 14.5152 0.695576 14.6186 0.801714C14.8312 1.01938 14.9502 1.31157 14.9502 1.61584C14.9502 1.92011 14.8312 2.2123 14.6186 2.42996L14.6161 2.42996Z" fill="#3C4043"/>
</svg>
