<svg width="15" height="29" viewBox="0 0 15 29" fill="none" xmlns="http://www.w3.org/2000/svg">
<path d="M0.38387 2.42996L12.2594 14.6126L0.383871 26.7952C0.171267 27.0129 0.0522419 27.3051 0.052242 27.6093C0.052242 27.9136 0.171267 28.2058 0.383871 28.4235C0.487134 28.5289 0.610388 28.6126 0.746415 28.6697C0.882443 28.7269 1.02851 28.7563 1.17606 28.7563C1.32361 28.7563 1.46967 28.7269 1.6057 28.6697C1.74173 28.6126 1.86498 28.5289 1.96825 28.4235L14.6042 15.4633C14.8261 15.2357 14.9503 14.9304 14.9503 14.6126C14.9503 14.2948 14.8261 13.9895 14.6042 13.7619L1.97068 0.801714C1.86734 0.695576 1.74379 0.611217 1.60731 0.553616C1.47083 0.496014 1.32419 0.466339 1.17606 0.466339C1.02792 0.466339 0.881285 0.496014 0.744807 0.553616C0.608328 0.611217 0.484772 0.695576 0.381432 0.801714C0.168827 1.01938 0.0498035 1.31157 0.0498035 1.61584C0.0498035 1.92011 0.168827 2.2123 0.381432 2.42996L0.38387 2.42996Z" fill="#3C4043"/>
</svg>
