<svg width="32" height="32" viewBox="0 0 32 32" fill="none" xmlns="http://www.w3.org/2000/svg">
<path d="M26.9098 2.62522C25.216 0.962744 22.1542 0.25 18.2372 0.25H6.86901C6.48147 0.250012 6.10663 0.369074 5.81191 0.585779C5.51718 0.802484 5.3219 1.10262 5.26116 1.43222L0.527664 27.2839C0.433578 27.7937 0.891976 28.2553 1.49199 28.2553H8.5103L10.2729 18.6281L10.2182 18.9296C10.3438 18.2491 11.0196 17.7471 11.82 17.7471H15.1551C21.7068 17.7471 26.837 15.4555 28.3355 8.82648C28.38 8.63042 28.4186 8.43959 28.4519 8.25316C28.2627 8.16691 28.2627 8.16691 28.4519 8.25316C28.8981 5.80299 28.4488 4.13518 26.9098 2.62522Z" fill="#27346A"/>
<path d="M12.9584 7.37053C13.1502 7.29186 13.3601 7.25109 13.5726 7.2512H22.485C23.5404 7.2512 24.5248 7.31034 25.4243 7.43501C25.676 7.46957 25.9265 7.51083 26.1752 7.55874C26.5278 7.62573 26.8763 7.70772 27.2194 7.80441C27.6616 7.9316 28.0735 8.07971 28.452 8.25316C28.8981 5.80205 28.4488 4.13518 26.9098 2.62522C25.215 0.962744 22.1542 0.25 18.2372 0.25H6.86804C6.06758 0.25 5.38661 0.75182 5.26116 1.43222L0.527665 27.283C0.433579 27.7936 0.891976 28.2546 1.49102 28.2546H8.5103L12.1671 8.2854C12.2031 8.08912 12.2939 7.9033 12.4317 7.74394C12.5696 7.58457 12.7503 7.45642 12.9584 7.37053Z" fill="#27346A"/>
<path d="M28.3356 8.82673C26.837 15.4549 21.707 17.7474 15.1551 17.7474H11.819C11.0187 17.7474 10.3427 18.2493 10.2184 18.9298L8.02556 30.9001C7.94363 31.3463 8.34428 31.7505 8.86844 31.7505H14.7847C15.1236 31.7504 15.4514 31.6462 15.709 31.4567C15.9667 31.2671 16.1373 31.0046 16.1903 30.7163L16.2479 30.4567L17.363 24.3712L17.4348 24.0349C17.4878 23.7467 17.6584 23.4842 17.916 23.2946C18.1737 23.105 18.5014 23.0008 18.8403 23.0007H19.7257C25.4568 23.0007 29.9444 20.9957 31.2558 15.197C31.8032 12.7738 31.5199 10.7506 30.0719 9.32949C29.6327 8.89906 29.0873 8.54358 28.4519 8.25342C28.4175 8.44079 28.3802 8.63067 28.3356 8.82673Z" fill="#2790C3"/>
<path d="M26.8836 7.71459C26.6499 7.65584 26.4141 7.60382 26.1764 7.55862C25.9275 7.5115 25.6771 7.47052 25.4255 7.43573C24.525 7.31023 23.5413 7.25098 22.485 7.25098H13.5736C13.361 7.25056 13.151 7.29169 12.9594 7.37125C12.7511 7.45689 12.5702 7.58495 12.4323 7.74437C12.2944 7.90378 12.2037 8.08973 12.1681 8.28613L10.2739 18.628L10.2192 18.9294C10.3438 18.2489 11.0197 17.747 11.8202 17.747H15.1562C21.708 17.747 26.838 15.4554 28.3366 8.82636C28.3812 8.6303 28.4186 8.44032 28.453 8.25305C28.0735 8.08054 27.6628 7.93148 27.2204 7.80514C27.1088 7.77327 26.9966 7.74309 26.8837 7.71459" fill="#1F264F"/>
</svg>
