<svg width="32" height="30" viewBox="0 0 32 30" fill="none" xmlns="http://www.w3.org/2000/svg">
<path d="M30.5666 18.6274C28.4936 26.6674 20.0679 31.5548 11.7635 29.5506C3.44706 27.5464 -1.60828 19.401 0.464838 11.3726C2.53784 3.33256 10.9513 -1.55486 19.2678 0.449399C27.5721 2.44182 32.6397 10.5873 30.5666 18.6274Z" fill="url(#paint0_linear_4177_3582)"/>
<path d="M22.9027 13.1309C23.2057 11.1387 21.642 10.0605 19.4844 9.3457L20.1875 6.63867L18.4905 6.22852L17.8117 8.86523C17.3632 8.75977 16.9026 8.6543 16.442 8.56055L17.1208 5.91211L15.4238 5.50195L14.7328 8.19726C14.3571 8.11523 13.9934 8.0332 13.6419 7.95117V7.93945L11.2904 7.37695L10.8419 9.13476C10.8419 9.13476 12.1025 9.41601 12.0783 9.42773C12.7692 9.5918 12.8904 10.0371 12.8662 10.3887L12.0661 13.4707C12.1146 13.4824 12.1752 13.4941 12.248 13.5293C12.1874 13.5176 12.1267 13.5059 12.0661 13.4824L10.951 17.7949C10.8661 17.9941 10.6479 18.2988 10.1752 18.1816C10.1873 18.2051 8.93883 17.8887 8.93883 17.8887L8.09033 19.7754L10.3085 20.3145C10.7207 20.4199 11.1207 20.5137 11.5207 20.6191L10.8176 23.3496L12.5146 23.7598L13.2177 21.0527C13.6783 21.1699 14.1389 21.2871 14.5753 21.3926L13.8843 24.0879L15.5813 24.498L16.2844 21.7676C19.1935 22.2949 21.3754 22.084 22.2845 19.541C23.0239 17.502 22.2481 16.3184 20.7208 15.5449C21.8481 15.2988 22.6845 14.584 22.9027 13.1309ZM19.0117 18.4043C18.4905 20.4434 14.9268 19.3418 13.7753 19.0605L14.7086 15.4395C15.8601 15.7207 19.5693 16.2715 19.0117 18.4043ZM19.545 13.0957C19.0602 14.959 16.1026 14.0098 15.145 13.7754L15.9935 10.4941C16.9511 10.7285 20.042 11.1621 19.545 13.0957Z" fill="white"/>
<defs>
<linearGradient id="paint0_linear_4177_3582" x1="15.507" y1="-0.00719999" x2="15.507" y2="29.997" gradientUnits="userSpaceOnUse">
<stop stop-color="#F9AA4B"/>
<stop offset="1" stop-color="#F7931A"/>
</linearGradient>
</defs>
</svg>
