<svg width="26" height="15" viewBox="0 0 26 15" fill="none" xmlns="http://www.w3.org/2000/svg">
<path d="M24.1953 0.336299L12.9989 12.2911L1.80238 0.336299C1.60234 0.122274 1.33379 0.0024536 1.05416 0.0024536C0.774521 0.0024536 0.505979 0.122274 0.305935 0.336299C0.209074 0.440251 0.132123 0.564328 0.079591 0.701265C0.0270585 0.838201 -3.7488e-09 0.985244 -4.31397e-09 1.13378C-4.87914e-09 1.28231 0.0270585 1.42935 0.079591 1.56629C0.132123 1.70323 0.209074 1.82731 0.305935 1.93126L12.217 14.6517C12.4262 14.875 12.7068 15 12.9989 15C13.291 15 13.5715 14.875 13.7807 14.6517L25.6918 1.93371C25.7893 1.82968 25.8668 1.7053 25.9198 1.56791C25.9727 1.43052 26 1.2829 26 1.13378C26 0.984652 25.9727 0.837037 25.9198 0.699647C25.8668 0.562256 25.7893 0.437875 25.6918 0.333844C25.4917 0.119819 25.2232 -1.05124e-07 24.9436 -1.03958e-07C24.6639 -1.02793e-07 24.3954 0.119819 24.1953 0.333844L24.1953 0.336299Z" fill="white"/>
</svg>
