<svg width="38" height="38" viewBox="0 0 38 38" fill="none" xmlns="http://www.w3.org/2000/svg">
<path d="M19 4.15625C16.4013 4.15695 13.8482 4.83971 11.5961 6.13628C9.3439 7.43285 7.47148 9.29782 6.16593 11.5448C4.86039 13.7918 4.16745 16.3421 4.15638 18.9408C4.14532 21.5395 4.8165 24.0956 6.10286 26.3536L4.76633 31.0316C4.67908 31.337 4.67508 31.6602 4.75475 31.9677C4.83443 32.2752 4.99488 32.5558 5.21948 32.7804C5.44408 33.005 5.72466 33.1655 6.03214 33.2452C6.33963 33.3249 6.66283 33.3209 6.96826 33.2337L11.6466 31.8971C13.6217 33.0232 15.829 33.6806 18.0984 33.8185C20.3678 33.9564 22.6385 33.5712 24.7355 32.6927C26.8324 31.8141 28.6995 30.4656 30.1928 28.7512C31.6861 27.0368 32.7657 25.0023 33.3482 22.8047C33.9308 20.607 34.0007 18.3049 33.5527 16.0759C33.1047 13.8469 32.1507 11.7506 30.7643 9.94871C29.3779 8.14679 27.5961 6.68739 25.5564 5.68309C23.5167 4.67878 21.2736 4.1564 19 4.15625ZM19 32.6562C16.5474 32.6579 14.1397 31.9981 12.0306 30.7463C11.961 30.7049 11.8837 30.6782 11.8035 30.6678C11.7232 30.6574 11.6417 30.6635 11.5639 30.6857L6.64214 32.0919C6.54033 32.121 6.43259 32.1223 6.33008 32.0958C6.22758 32.0692 6.13405 32.0157 6.05917 31.9408C5.9843 31.866 5.93081 31.7724 5.90425 31.6699C5.87769 31.5674 5.87902 31.4597 5.90811 31.3579L7.31411 26.4363C7.33637 26.3585 7.34247 26.2769 7.33206 26.1967C7.32164 26.1164 7.29493 26.0391 7.25355 25.9696C5.71538 23.3781 5.07747 20.3507 5.4392 17.359C5.80092 14.3672 7.14196 11.5791 9.25342 9.42891C11.3649 7.27874 14.1282 5.88727 17.1129 5.47125C20.0976 5.05524 23.1361 5.63804 25.755 7.12888C28.374 8.61972 30.4263 10.9349 31.5924 13.7137C32.7584 16.4925 32.9727 19.579 32.2018 22.4922C31.4308 25.4055 29.7181 27.982 27.3302 29.8204C24.9424 31.6588 22.0136 32.6559 19 32.6562ZM13.0624 18.9996C13.0624 19.2344 12.9927 19.464 12.8622 19.6593C12.7317 19.8546 12.5463 20.0068 12.3293 20.0967C12.1123 20.1865 11.8735 20.2101 11.6432 20.1642C11.4128 20.1184 11.2012 20.0053 11.0352 19.8392C10.8691 19.6732 10.756 19.4616 10.7102 19.2312C10.6644 19.0009 10.6879 18.7621 10.7777 18.5451C10.8676 18.3281 11.0198 18.1427 11.2151 18.0122C11.4104 17.8817 11.64 17.8121 11.8749 17.8121C12.1897 17.8124 12.4915 17.9377 12.7141 18.1603C12.9367 18.3829 13.062 18.6847 13.0624 18.9996ZM20.1874 18.9996C20.1874 19.2344 20.1177 19.464 19.9872 19.6593C19.8567 19.8546 19.6713 20.0068 19.4543 20.0967C19.2373 20.1865 18.9985 20.2101 18.7682 20.1642C18.5378 20.1184 18.3262 20.0053 18.1602 19.8392C17.9941 19.6732 17.881 19.4616 17.8352 19.2312C17.7894 19.0009 17.8129 18.7621 17.9027 18.5451C17.9926 18.3281 18.1448 18.1427 18.3401 18.0122C18.5354 17.8817 18.765 17.8121 18.9999 17.8121C19.3147 17.8124 19.6165 17.9377 19.8391 18.1603C20.0617 18.3829 20.187 18.6847 20.1874 18.9996ZM27.3124 18.9996C27.3124 19.2344 27.2427 19.464 27.1122 19.6593C26.9817 19.8546 26.7963 20.0068 26.5793 20.0967C26.3623 20.1865 26.1235 20.2101 25.8932 20.1642C25.6628 20.1184 25.4512 20.0053 25.2852 19.8392C25.1191 19.6732 25.006 19.4616 24.9602 19.2312C24.9144 19.0009 24.9379 18.7621 25.0277 18.5451C25.1176 18.3281 25.2698 18.1427 25.4651 18.0122C25.6604 17.8817 25.89 17.8121 26.1249 17.8121C26.4397 17.8124 26.7415 17.9377 26.9641 18.1603C27.1867 18.3829 27.312 18.6847 27.3124 18.9996Z" fill="#5F6368"/>
</svg>
