<svg width="38" height="39" viewBox="0 0 38 39" fill="none" xmlns="http://www.w3.org/2000/svg">
<path d="M19 4.26562C16.4012 4.26632 13.8482 4.96704 11.596 6.29773C9.34384 7.62842 7.47141 9.54248 6.16587 11.8486C4.86034 14.1547 4.16742 16.7721 4.15638 19.4392C4.14535 22.1063 4.81657 24.7297 6.10297 27.0471L4.76629 31.8484C4.67906 32.1618 4.67508 32.4935 4.75478 32.8091C4.83447 33.1247 4.99494 33.4127 5.21956 33.6432C5.44417 33.8737 5.72476 34.0384 6.03225 34.1201C6.33974 34.2019 6.66294 34.1978 6.96836 34.1082L11.6467 32.7365C13.6218 33.8922 15.8292 34.5669 18.0985 34.7084C20.3679 34.85 22.6387 34.4547 24.7356 33.553C26.8326 32.6513 28.6997 31.2673 30.193 29.5078C31.6863 27.7483 32.7658 25.6602 33.3483 23.4047C33.9309 21.1492 34.0008 18.7865 33.5528 16.4989C33.1048 14.2112 32.1508 12.0598 30.7644 10.2104C29.3779 8.36109 27.5962 6.8633 25.5564 5.83258C23.5167 4.80186 21.2735 4.26576 19 4.26562ZM19 33.5156C16.5473 33.5173 14.1397 32.8402 12.0305 31.5554C11.961 31.5129 11.8837 31.4855 11.8034 31.4748C11.7232 31.4641 11.6416 31.4704 11.5638 31.4933L6.6421 32.9364C6.54029 32.9662 6.43257 32.9676 6.33009 32.9403C6.22761 32.913 6.13411 32.8581 6.05925 32.7813C5.9844 32.7045 5.93093 32.6085 5.90437 32.5033C5.87782 32.3981 5.87915 32.2876 5.90822 32.1831L7.31422 27.132C7.33646 27.0521 7.34255 26.9684 7.33214 26.8861C7.32172 26.8037 7.29502 26.7244 7.25366 26.653C5.71552 23.9934 5.07764 20.8863 5.43938 17.8159C5.80111 14.7454 7.14216 11.884 9.25361 9.67724C11.3651 7.47052 14.1283 6.04246 17.113 5.61552C20.0977 5.18858 23.1361 5.78674 25.7551 7.3168C28.374 8.84687 30.4263 11.2229 31.5923 14.0749C32.7583 16.9268 32.9725 20.0944 32.2016 23.0843C31.4307 26.0742 29.7179 28.7185 27.3301 30.6053C24.9423 32.492 22.0135 33.5153 19 33.5156ZM26.4978 22.3249L23.4608 20.5439C23.1861 20.3829 22.8745 20.2999 22.5582 20.3034C22.2418 20.3068 21.9321 20.3966 21.6607 20.5635L19.6112 21.8255C18.3706 21.1804 17.3628 20.146 16.7342 18.8726L17.9639 16.7692C18.1265 16.4907 18.2139 16.1728 18.2173 15.8481C18.2206 15.5235 18.1397 15.2037 17.9829 14.9218L16.2476 11.8048C16.1059 11.5511 15.9015 11.3401 15.655 11.1934C15.4085 11.0466 15.1287 10.9691 14.8437 10.9688C13.5871 10.9691 12.3818 11.4803 11.4916 12.3905C10.6014 13.3007 10.0987 14.5358 10.0937 15.8255C10.0914 17.5075 10.4122 19.1735 11.0378 20.7282C11.6633 22.2829 12.5814 23.6957 13.7394 24.8859C14.8975 26.0762 16.2728 27.0204 17.7867 27.6647C19.3006 28.309 20.9234 28.6406 22.5623 28.6406H22.5801C23.8367 28.6355 25.0402 28.1197 25.9271 27.206C26.814 26.2924 27.3122 25.0553 27.3125 23.7656C27.3122 23.4732 27.2367 23.186 27.0936 22.933C26.9506 22.6801 26.7451 22.4703 26.4978 22.3249ZM22.5785 27.4219H22.5625C21.0797 27.4219 19.6114 27.1219 18.2416 26.539C16.8719 25.9561 15.6276 25.1018 14.5798 24.025C13.532 22.9481 12.7014 21.6698 12.1354 20.2632C11.5694 18.8566 11.2791 17.3493 11.2812 15.8274C11.2853 14.8605 11.6624 13.9347 12.3301 13.2525C12.9978 12.5703 13.9016 12.1874 14.8437 12.1875C14.9194 12.1876 14.9937 12.2082 15.0592 12.2471C15.1246 12.2861 15.1789 12.3421 15.2166 12.4095L16.9518 15.5266C17.0041 15.6206 17.0311 15.7271 17.03 15.8353C17.0289 15.9435 16.9998 16.0495 16.9456 16.1423L15.5518 18.5262C15.5025 18.6105 15.4738 18.7058 15.4682 18.8039C15.4625 18.902 15.4801 19.0001 15.5194 19.0897C16.2944 20.8599 17.6751 22.2768 19.3999 23.0722C19.4872 23.1125 19.5828 23.1306 19.6784 23.1248C19.774 23.119 19.8668 23.0896 19.9489 23.0389L22.2715 21.6084C22.362 21.5528 22.4653 21.5229 22.5707 21.5218C22.6762 21.5206 22.78 21.5483 22.8717 21.6019L25.9087 23.3831C25.9743 23.4217 26.0289 23.4774 26.0669 23.5445C26.1049 23.6117 26.1249 23.688 26.125 23.7656C26.1251 24.7325 25.752 25.6601 25.0873 26.3453C24.4227 27.0306 23.5206 27.4176 22.5785 27.4219Z" fill="#5F6368"/>
</svg>
