<svg width="39" height="39" viewBox="0 0 39 39" fill="none" xmlns="http://www.w3.org/2000/svg">
<path d="M34.8329 5.29668C34.5811 5.07906 34.2745 4.93454 33.9463 4.87878C33.6182 4.82303 33.2811 4.85818 32.9715 4.98042L4.85543 16.0261C4.48794 16.1705 4.17709 16.4301 3.96939 16.7659C3.76169 17.1017 3.6683 17.4958 3.7032 17.8891C3.7381 18.2824 3.89941 18.6539 4.16299 18.9479C4.42657 19.2419 4.77827 19.4426 5.16545 19.5201L12.797 21.0466V30.4663C12.7932 30.8287 12.8988 31.1838 13.1002 31.4852C13.3016 31.7865 13.5892 32.02 13.9255 32.1552C14.1508 32.2495 14.3924 32.2985 14.6367 32.2992C14.8753 32.2984 15.1115 32.2503 15.3315 32.1576C15.5514 32.0648 15.7507 31.9293 15.9179 31.7589L20.2743 27.4025L26.7021 33.0591C27.0334 33.3532 27.4608 33.5159 27.9038 33.5164C28.0964 33.5162 28.2878 33.4859 28.471 33.4265C28.7731 33.3307 29.0448 33.1573 29.259 32.9237C29.4732 32.69 29.6224 32.4043 29.6917 32.095L35.422 7.09038C35.4968 6.7661 35.4814 6.42755 35.3776 6.11137C35.2737 5.7952 35.0854 5.51347 34.8329 5.29668ZM4.91698 17.7813C4.90187 17.6496 4.93157 17.5168 5.00129 17.4041C5.07101 17.2915 5.17666 17.2056 5.30119 17.1605L31.0739 7.03523L13.265 19.8973L5.40448 18.3251C5.27388 18.3025 5.15471 18.2366 5.06624 18.1379C4.97778 18.0392 4.92519 17.9135 4.91698 17.7813ZM15.0559 30.8973C14.9707 30.9825 14.8621 31.0405 14.7439 31.064C14.6257 31.0875 14.5032 31.0754 14.3918 31.0293C14.2805 30.9832 14.1853 30.9051 14.1184 30.8049C14.0514 30.7046 14.0157 30.5868 14.0157 30.4663V21.8948L19.3575 26.5957L15.0559 30.8973ZM34.234 6.81814L28.5036 31.8228C28.48 31.9257 28.4301 32.0207 28.3588 32.0985C28.2875 32.1763 28.1972 32.2342 28.0967 32.2666C27.9962 32.299 27.8891 32.3048 27.7857 32.2833C27.6824 32.2619 27.5864 32.2139 27.5071 32.1442L14.3821 20.5938L34.1354 6.32759C34.1874 6.3968 34.2233 6.47676 34.2403 6.56162C34.2574 6.64648 34.2552 6.73407 34.234 6.81799V6.81814Z" fill="#5F6368"/>
</svg>
