<svg width="25" height="25" viewBox="0 0 25 25" fill="none" xmlns="http://www.w3.org/2000/svg">
<path d="M7.38889 12.5L12.5 17.6111M12.5 17.6111V7.38889M12.5 17.6111L17.6111 12.5M1 12.5C1 14.0102 1.29746 15.5056 1.87539 16.9009C2.45331 18.2961 3.3004 19.5639 4.36827 20.6317C5.43615 21.6996 6.7039 22.5467 8.09914 23.1246C9.49438 23.7025 10.9898 24 12.5 24C14.0102 24 15.5056 23.7025 16.9009 23.1246C18.2961 22.5467 19.5639 21.6996 20.6317 20.6317C21.6996 19.5639 22.5467 18.2961 23.1246 16.9009C23.7025 15.5056 24 14.0102 24 12.5C24 9.45001 22.7884 6.52494 20.6317 4.36827C18.4751 2.2116 15.55 1 12.5 1C9.45001 1 6.52494 2.2116 4.36827 4.36827C2.2116 6.52494 1 9.45001 1 12.5Z" stroke="#3C4043" stroke-width="2" stroke-linecap="round" stroke-linejoin="round"/>
</svg>
