<svg width="19" height="18" viewBox="0 0 19 18" fill="none" xmlns="http://www.w3.org/2000/svg">
<path d="M6.42879 18.0002C7.13887 18.0002 7.71451 17.4245 7.71451 16.7144C7.71451 16.0043 7.13887 15.4287 6.42879 15.4287C5.7187 15.4287 5.14307 16.0043 5.14307 16.7144C5.14307 17.4245 5.7187 18.0002 6.42879 18.0002Z" fill="#3C4043"/>
<path d="M15.4288 18.0002C16.1389 18.0002 16.7145 17.4245 16.7145 16.7144C16.7145 16.0043 16.1389 15.4287 15.4288 15.4287C14.7187 15.4287 14.1431 16.0043 14.1431 16.7144C14.1431 17.4245 14.7187 18.0002 15.4288 18.0002Z" fill="#3C4043"/>
<path d="M18.0001 3.21419H3.74145L3.2143 0.514175C3.18425 0.366782 3.10346 0.234597 2.98599 0.140627C2.86853 0.0466567 2.72183 -0.00314633 2.57144 -0.000113358H0V1.28561H2.04429L4.50002 13.6285C4.53007 13.7759 4.61086 13.9081 4.72833 14.0021C4.84579 14.096 4.99249 14.1458 5.14288 14.1428H16.7144V12.8571H5.67002L5.14288 10.2856H16.7144C16.863 10.2893 17.0082 10.2413 17.1254 10.1499C17.2427 10.0585 17.3246 9.92923 17.3572 9.78422L18.6429 3.99848C18.6645 3.90309 18.664 3.80405 18.6415 3.70889C18.619 3.61373 18.575 3.52495 18.5131 3.44933C18.4511 3.3737 18.3726 3.31321 18.2837 3.27246C18.1949 3.23172 18.0978 3.21178 18.0001 3.21419ZM16.2001 8.99993H4.89859L3.99859 4.49991H17.1965L16.2001 8.99993Z" fill="#3C4043"/>
</svg>
