<svg width="13" height="19" viewBox="0 0 13 19" fill="none" xmlns="http://www.w3.org/2000/svg">
<path d="M6.5 1.26667C7.14279 1.26667 7.77114 1.45239 8.3056 1.80035C8.84006 2.1483 9.25662 2.64287 9.50261 3.2215C9.74859 3.80013 9.81295 4.43685 9.68755 5.05112C9.56215 5.66539 9.25262 6.22964 8.7981 6.6725C8.34358 7.11537 7.76448 7.41697 7.13404 7.53915C6.50361 7.66134 5.85014 7.59863 5.25628 7.35895C4.66242 7.11927 4.15484 6.71339 3.79772 6.19264C3.44061 5.67188 3.25 5.05964 3.25 4.43333C3.25 3.59348 3.59241 2.78803 4.2019 2.19416C4.8114 1.6003 5.63805 1.26667 6.5 1.26667ZM6.5 0C5.60009 0 4.7204 0.260011 3.97216 0.747151C3.22391 1.23429 2.64073 1.92668 2.29635 2.73677C1.95197 3.54686 1.86186 4.43825 2.03743 5.29823C2.21299 6.15822 2.64634 6.94816 3.28266 7.56817C3.91899 8.18819 4.72973 8.61042 5.61234 8.78148C6.49495 8.95254 7.40981 8.86475 8.24121 8.5292C9.07261 8.19365 9.78323 7.62542 10.2832 6.89636C10.7831 6.1673 11.05 5.31016 11.05 4.43333C11.05 3.25754 10.5706 2.1299 9.71734 1.29849C8.86405 0.467082 7.70673 0 6.5 0ZM13 19H11.7V15.8333C11.7 15.4175 11.6159 15.0057 11.4526 14.6215C11.2893 14.2373 11.0499 13.8882 10.7481 13.5942C10.4463 13.3001 10.088 13.0669 9.69372 12.9077C9.29941 12.7486 8.8768 12.6667 8.45 12.6667H4.55C3.68805 12.6667 2.8614 13.0003 2.2519 13.5942C1.64241 14.188 1.3 14.9935 1.3 15.8333V19H0V15.8333C0 14.6575 0.479374 13.5299 1.33266 12.6985C2.18595 11.8671 3.34326 11.4 4.55 11.4H8.45C9.65673 11.4 10.814 11.8671 11.6673 12.6985C12.5206 13.5299 13 14.6575 13 15.8333V19Z" fill="#3C4043"/>
</svg>
