<svg width="70" height="70" viewBox="0 0 70 70" fill="none" xmlns="http://www.w3.org/2000/svg">
<path d="M68.4879 34.819C68.4879 44.138 64.7302 52.5552 58.5676 58.7178C52.5553 64.73 44.1381 68.638 34.8191 68.638H34.6688C25.3498 68.638 16.9326 64.8803 10.77 58.7178L34.8191 34.819L58.5676 10.9202C64.129 16.4815 67.7363 23.8466 68.3375 31.9631C68.4879 32.865 68.4879 33.7668 68.4879 34.819Z" stroke="#EA4335" stroke-width="2" stroke-miterlimit="10"/>
<path d="M58.7179 58.7178C52.7056 64.7301 44.2884 68.638 34.9694 68.638C34.8191 67.7362 34.8191 66.8344 34.8191 65.7822C34.8191 57.2147 37.9755 49.3988 43.3866 43.3865L58.7179 58.7178Z" stroke="#EA4335" stroke-width="2" stroke-miterlimit="10"/>
<path d="M68.638 34.819C68.638 44.1381 64.8804 52.5553 58.7178 58.7178L43.3865 43.3865C49.5491 36.4724 58.5675 32.1135 68.4877 32.1135C68.638 33.0154 68.638 33.9172 68.638 34.819Z" stroke="#EA4335" stroke-width="2" stroke-miterlimit="10"/>
<path d="M58.5675 10.9203L34.8191 34.8191L10.9203 58.5675C5.05829 52.7056 1.45092 44.8896 1 36.0215C1 35.5706 1 35.1197 1 34.6687C1 25.3497 4.75767 16.9325 10.9203 10.7699C16.9325 4.75767 25.5 1 34.8191 1C35.27 1 35.7209 1 36.1718 1C44.8896 1.45092 52.8559 5.05829 58.5675 10.9203Z" stroke="#EA4335" stroke-width="2" stroke-miterlimit="10"/>
<path d="M26.2516 26.2515C20.089 32.4141 11.6718 36.1717 2.35276 36.1717C1.90184 36.1717 1.45092 36.1717 1 36.1717C1 35.7208 1 35.2699 1 34.819C1 25.4999 4.75767 17.0827 10.9203 10.9202L26.2516 26.2515Z" stroke="#EA4335" stroke-width="2" stroke-miterlimit="10"/>
<path d="M36.1717 2.35276C36.1717 11.6718 32.4141 20.089 26.2515 26.2516L10.9202 10.9203C16.9324 4.75767 25.4999 1 34.819 1C35.2699 1 35.7208 1 36.1717 1C36.1717 1.45092 36.1717 1.90184 36.1717 2.35276Z" stroke="#EA4335" stroke-width="2" stroke-miterlimit="10"/>
<path d="M10.9202 10.9202L58.7178 58.7178" stroke="#EA4335" stroke-width="2" stroke-miterlimit="10"/>
</svg>
