<svg width="70" height="70" viewBox="0 0 70 70" fill="none" xmlns="http://www.w3.org/2000/svg">
<path d="M68.638 34.8191C68.638 39.6289 67.5859 44.2884 65.7822 48.3467C63.9785 46.8436 57.5153 42.4847 50.3006 50.9019C46.3926 55.4111 40.5306 58.2669 33.9171 58.2669C21.8926 58.2669 12.2729 48.6473 12.2729 36.6227C12.2729 30.9111 14.5276 25.6503 18.1349 21.8927C26.2515 11.8221 17.5337 5.80982 17.5337 5.80982C22.6441 2.80368 28.5061 1 34.819 1C35.2699 1 35.7208 1 36.1717 1C44.8895 1.30061 52.8558 5.05829 58.7178 10.9203C64.2791 16.4816 67.8865 23.8466 68.4877 31.9632C68.638 32.8651 68.638 33.9172 68.638 34.8191Z" stroke="#EA4335" stroke-width="2" stroke-miterlimit="10"/>
<path d="M65.7823 48.3467C64.1289 52.2547 61.724 55.7117 58.7178 58.7179C52.5553 64.8804 44.1381 68.6381 34.9694 68.6381H34.819C25.5 68.6381 17.0828 64.8804 10.9203 58.7179C5.05829 52.8559 1.45092 45.0399 1 36.1718C1 35.7209 1 35.27 1 34.819C1 25.5 4.75767 17.0828 10.9203 10.9202C12.8742 8.96626 15.1288 7.16258 17.5338 5.80981C17.5338 5.80981 26.4019 11.9724 18.135 21.8927C14.5276 25.8006 12.273 31.0614 12.273 36.773C12.273 48.7976 21.8927 58.4172 33.9172 58.4172C40.3804 58.4172 46.2424 55.5614 50.3007 51.0522C57.5154 42.635 63.9786 46.9939 65.7823 48.3467Z" stroke="#EA4335" stroke-width="2" stroke-miterlimit="10"/>
<path d="M66.2332 48.7976C66.2332 48.7976 66.0828 48.6473 65.7822 48.3467" stroke="#EA4335" stroke-width="2" stroke-miterlimit="10"/>
<path d="M68.6381 34.8191C68.6381 44.1381 64.8804 52.5553 58.7178 58.7178C52.5553 64.8804 44.1381 68.6381 34.9694 68.6381H34.8191C25.5 68.6381 17.0828 64.8804 10.9203 58.7178C5.05829 52.8559 1.45092 45.0399 1 36.1718C1 35.7209 1 35.27 1 34.8191C1 25.5 4.75767 17.0828 10.9203 10.9203C17.0828 4.75767 25.5 1 34.8191 1C35.27 1 35.7209 1 36.1718 1C44.8896 1.30061 52.8559 5.05829 58.7178 10.9203C64.2792 16.4816 67.8866 23.8466 68.4878 31.9632C68.6381 32.8651 68.6381 33.9172 68.6381 34.8191Z" stroke="#EA4335" stroke-width="2" stroke-miterlimit="10"/>
</svg>
