<svg width="71" height="71" viewBox="0 0 71 71" fill="none" xmlns="http://www.w3.org/2000/svg">
<path d="M69.6381 35.819C69.6381 45.138 65.8805 53.5552 59.7179 59.7178C53.5553 65.8804 45.1381 69.638 35.9694 69.638C35.8191 68.7362 35.8191 67.8343 35.8191 66.7822C35.8191 58.2147 38.9755 50.2484 44.3866 44.3865C50.5492 37.4723 59.5676 33.1134 69.4878 32.9631C69.6381 33.865 69.6381 34.9171 69.6381 35.819Z" stroke="#EA4335" stroke-width="2" stroke-miterlimit="10"/>
<path d="M69.4878 32.9632C59.4172 32.9632 50.5491 37.3221 44.3865 44.3865C39.1258 50.3988 35.819 58.2148 35.819 66.7823C35.819 67.6841 35.819 68.7363 35.9694 69.6381H35.819C26.5 69.6381 18.0828 65.8804 11.9203 59.7178C6.05829 53.8559 2.45092 46.0399 2 37.1718C2.45092 37.1718 2.90184 37.1718 3.35276 37.1718C12.6718 37.1718 21.089 33.4141 27.2516 27.2516C33.4141 21.089 37.1718 12.6718 37.1718 3.35276C37.1718 2.90184 37.1718 2.45092 37.1718 2C45.8896 2.30061 53.8559 6.05829 59.7178 11.9203C65.2792 17.4816 68.8866 24.8466 69.4878 32.9632Z" stroke="#EA4335" stroke-width="2" stroke-miterlimit="10"/>
<path d="M37.1718 3.35276C37.1718 12.6718 33.4141 21.089 27.2516 27.2516C21.089 33.4141 12.6718 37.1718 3.35276 37.1718C2.90184 37.1718 2.45092 37.1718 2 37.1718C2 36.7209 2 36.27 2 35.8191C2 26.5 5.75767 18.0828 11.9203 11.9203C18.0828 5.75767 26.5 2 35.8191 2C36.27 2 36.7209 2 37.1718 2C37.1718 2.45092 37.1718 2.90184 37.1718 3.35276Z" stroke="#EA4335" stroke-width="2" stroke-miterlimit="10"/>
<path d="M24.9969 20.7886L32.362 28.1536" stroke="#EA4335" stroke-width="2" stroke-miterlimit="10"/>
<path d="M28.6042 15.6782L37.322 21.3899" stroke="#EA4335" stroke-width="2" stroke-miterlimit="10"/>
<path d="M31.1595 10.1167L40.7792 14.3253" stroke="#EA4335" stroke-width="2" stroke-miterlimit="10"/>
<path d="M15.0767 29.6567L20.0368 38.8255" stroke="#EA4335" stroke-width="2" stroke-miterlimit="10"/>
<path d="M19.8865 26.0493L26.3497 34.3162" stroke="#EA4335" stroke-width="2" stroke-miterlimit="10"/>
<path d="M48.2945 47.3929L40.9294 40.0278" stroke="#EA4335" stroke-width="2" stroke-miterlimit="10"/>
<path d="M44.6872 52.5032L35.9694 46.7915" stroke="#EA4335" stroke-width="2" stroke-miterlimit="10"/>
<path d="M42.1319 57.9142L32.6626 53.7056" stroke="#EA4335" stroke-width="2" stroke-miterlimit="10"/>
<path d="M58.816 39.5768L53.8558 30.2578" stroke="#EA4335" stroke-width="2" stroke-miterlimit="10"/>
<path d="M54.0062 42.8836L47.543 34.6167" stroke="#EA4335" stroke-width="2" stroke-miterlimit="10"/>
</svg>
