<svg width="70" height="70" viewBox="0 0 70 70" fill="none" xmlns="http://www.w3.org/2000/svg">
<path d="M68.6381 34.8986C68.6381 44.3066 64.8804 52.6692 58.7178 58.7919C52.5553 64.9145 44.1381 68.6479 34.9694 68.6479H34.8191C25.5 68.6479 17.0828 64.9145 10.9203 58.7919C5.05829 52.9679 1.45092 45.0532 1 36.2426C1 35.7946 1 35.3466 1 34.8986C1 25.4906 4.75767 17.128 10.9203 11.0053C17.0828 4.73333 25.5 1 34.8191 1C35.27 1 35.7209 1 36.1718 1C44.8896 1.29867 52.8559 5.03199 58.7178 10.856C64.2792 16.3813 67.8866 23.6986 68.4878 31.9119C68.6381 32.9573 68.6381 33.8533 68.6381 34.8986Z" stroke="#EA4335" stroke-width="2" stroke-miterlimit="10"/>
<path d="M20.6913 3.98804C17.3846 5.1827 13.6269 11.156 19.7895 10.26C25.9521 9.36403 49.7006 3.24137 49.2496 11.604C48.6484 17.5773 25.2005 12.948 20.541 17.428C13.6269 24.148 29.2588 42.3666 30.7619 44.6066C33.4674 48.7879 28.8079 52.8199 19.6392 40.4253C13.6269 31.9133 10.6208 25.3427 8.81709 24.596C4.6085 22.804 0.249598 31.6146 1.60236 40.276" stroke="#EA4335" stroke-width="2" stroke-miterlimit="10"/>
<path d="M48.6473 3.98804C48.6473 3.98804 61.2731 9.51336 57.8161 16.532C54.6596 23.1027 29.7087 17.876 27.3037 20.8627C24.8988 23.8493 29.5584 27.1346 35.8712 26.2386C42.1841 25.3427 48.7976 25.044 51.0522 25.044C53.3068 25.1933 56.9142 26.5373 56.7639 31.316C56.6136 36.0946 56.7639 41.1719 48.7976 53.2679C46.2424 57.0012 45.9418 59.9879 49.6995 58.3452C53.4572 56.7026 60.8222 50.5799 61.2731 39.38C61.1228 31.9133 66.3835 32.212 68.3375 39.38" stroke="#EA4335" stroke-width="2" stroke-miterlimit="10"/>
<path d="M52.2547 63.8706C52.2547 63.8706 38.727 70.7399 36.9234 64.468C35.7209 60.1373 39.6289 59.54 45.0399 50.58C49.5491 43.1133 51.6534 35.9454 49.2485 34.9C46.8436 33.8547 46.543 35.4974 42.7853 42.6653C39.0277 49.8333 36.0215 57.5986 30.1595 56.7026C24.2976 55.8066 18.135 51.3267 12.8743 41.62C12.1227 40.276 8.81597 29.8227 7.01229 32.9587C5.2086 36.0947 5.80983 42.964 12.273 51.028C16.3313 56.1053 22.043 58.644 20.9908 60.1373C19.9387 61.6306 15.8804 62.8253 11.6718 59.54" stroke="#EA4335" stroke-width="2" stroke-miterlimit="10"/>
</svg>
