<svg width="65" height="70" viewBox="0 0 65 70" fill="none" xmlns="http://www.w3.org/2000/svg">
<path d="M63.8829 14.9785C63.8829 18.135 63.604 21.1411 63.1858 24.1473C58.1663 22.4939 53.7045 19.6381 50.2188 15.8804L50.0793 15.7301C46.4542 11.8221 43.6656 7.16258 42.1318 1.75153C44.9204 1.15031 47.8485 1 50.7765 1C51.3342 1 51.8919 1 52.3102 1C53.4257 1 54.5411 1.15031 55.6565 1.30061C57.748 1.45092 59.5606 2.50307 60.9549 4.00614C62.3492 5.50921 63.3252 7.4632 63.4646 9.7178C63.604 11.0706 63.6041 12.4233 63.7435 13.7761C63.8829 14.227 63.8829 14.6779 63.8829 14.9785Z" stroke="#EA4335" stroke-width="2" stroke-miterlimit="10"/>
<path d="M4.48575 66.2347C4.34632 66.0844 4.06746 65.9341 3.92803 65.6335L3.7886 65.4832C2.3943 63.9801 1.41829 62.0261 1.27886 59.7715C1.13943 58.4187 1.13943 57.066 1 55.7132C1 55.2623 1 54.8114 1 54.3605C1 51.3543 1.27886 48.3482 1.69715 45.342H1.83658C1.41829 48.3482 1.13943 51.3543 1.13943 54.5108C1.13943 56.3144 1.27886 58.1181 1.41829 59.7715C1.55772 62.0261 2.53373 63.9801 3.92803 65.4832C4.06746 65.7838 4.20689 66.0844 4.48575 66.2347Z" stroke="#EA4335" stroke-width="2" stroke-miterlimit="10"/>
<path d="M22.6119 67.7379C19.8233 68.3391 16.8952 68.4894 13.9672 68.4894C13.4095 68.4894 12.8518 68.4894 12.4335 68.4894C11.318 68.4894 10.2026 68.3391 9.08715 68.1888C7.41399 68.0385 5.88027 67.4372 4.6254 66.3851L4.48597 66.2348C4.34654 66.0845 4.06768 65.9342 3.92825 65.6336C2.53395 64.1305 1.55794 62.1765 1.41851 59.9219C1.27908 58.1182 1.13965 56.4648 1.13965 54.6612C1.13965 51.5047 1.41851 48.4986 1.8368 45.4924C6.71685 47.1458 11.1786 50.0016 14.8038 53.7593C14.8038 53.7593 14.9432 53.7593 14.9432 53.9096C18.429 57.6673 21.0781 62.4771 22.6119 67.7379Z" stroke="#EA4335" stroke-width="2" stroke-miterlimit="10"/>
<path d="M63.1857 24.1472C59.1423 49.3988 38.6461 68.638 14.1064 68.638C12.4332 68.638 10.7601 68.4877 9.22636 68.3374C7.5532 68.1871 5.88004 67.4356 4.62517 66.3834C5.88004 67.4356 7.41377 68.0368 9.08693 68.3374C10.2024 68.4877 11.3178 68.4877 12.4332 68.638C12.991 68.638 13.5487 68.638 13.967 68.638C16.895 68.638 19.823 68.3374 22.6116 67.8865C21.0779 62.6258 18.4287 57.8159 14.8036 54.0583L14.6641 53.908C11.0389 50.1503 6.71662 47.2945 1.69714 45.6411C5.46175 23.2454 21.6356 5.65944 42.1318 1.75146C43.6655 7.01221 46.3147 11.822 49.9399 15.5797L50.0793 15.73C53.7045 19.638 58.1663 22.4938 63.1857 24.1472Z" stroke="#EA4335" stroke-width="2" stroke-miterlimit="10"/>
<path d="M14.8036 53.9095L23.8665 44.1395L28.4677 39.1794L32.9295 34.2193L37.5307 29.4095L42.1319 24.4493L50.0794 15.8818" stroke="#EA4335" stroke-width="2" stroke-miterlimit="10"/>
<path d="M20.5201 40.5322L27.3522 47.8973" stroke="#EA4335" stroke-width="2" stroke-miterlimit="10"/>
<path d="M24.9819 35.572L31.814 42.9371" stroke="#EA4335" stroke-width="2" stroke-miterlimit="10"/>
<path d="M29.5831 30.6121L36.4152 37.9771" stroke="#EA4335" stroke-width="2" stroke-miterlimit="10"/>
<path d="M34.1843 25.6519L41.0164 33.0169" stroke="#EA4335" stroke-width="2" stroke-miterlimit="10"/>
<path d="M38.7855 20.842L45.6176 28.2071" stroke="#EA4335" stroke-width="2" stroke-miterlimit="10"/>
</svg>
